<?xml version="1.0" encoding="UTF-8"?>
<svg xmlns="http://www.w3.org/2000/svg" xmlns:xlink="http://www.w3.org/1999/xlink" width="3000" height="3000" viewBox="0 0 3000 3000">
<defs>
<clipPath id="clip-0">

</clipPath>
<clipPath id="clip-1">
<path clip-rule="nonzero" d="M 1457.789062 1432.808594 C 1392.03125 1546.75 1326.929688 1659.550781 1262 1772.078125 C 1261.21875 1771.878906 1260.441406 1771.671875 1259.671875 1771.460938 C 1283.070312 1698.589844 1306.171875 1626.628906 1329.28125 1554.648438 C 1327.210938 1554 1325.140625 1553.328125 1323.078125 1552.671875 C 1314.050781 1571.140625 1305.019531 1589.628906 1295.039062 1610.058594 C 1219.800781 1540.101562 1195.328125 1449.050781 1165.679688 1359.621094 C 1164.949219 1368.339844 1164.21875 1377.070312 1163.378906 1386.960938 C 1101.378906 1391.738281 1048.390625 1371.550781 998.65625 1339.910156 C 964.617188 1318.25 930.777344 1296.300781 896.695312 1274.730469 C 874.234375 1260.519531 851.277344 1247.109375 828.984375 1232.648438 C 810.746094 1220.820312 803.875 1204.089844 811.046875 1182.808594 C 825.367188 1140.300781 835.617188 1095.738281 855.445312 1055.980469 C 872.625 1021.550781 896.714844 988.171875 925.074219 962.390625 C 955.1875 935.019531 986.046875 909.941406 1004.808594 873.039062 C 1015.230469 852.558594 1032.171875 841.789062 1054.800781 839.078125 C 1069.371094 837.328125 1083.808594 834.53125 1098.378906 832.871094 C 1180.988281 823.460938 1200.96875 838.75 1213.980469 920.929688 C 1219.050781 952.960938 1212.828125 963.011719 1180.539062 960.761719 C 1152.628906 958.828125 1125.128906 950.109375 1097.589844 943.769531 C 1061.441406 935.460938 1036.121094 951.210938 1029.101562 987.53125 C 1026.671875 1000.121094 1025.761719 1013 1023.558594 1025.648438 C 1015.511719 1071.941406 1007.199219 1118.191406 999.074219 1163.910156 C 1090.109375 1076.46875 1153.058594 1141.910156 1215.71875 1212.449219 C 1203.648438 1193.339844 1191.570312 1174.21875 1179.398438 1154.960938 C 1199.589844 1132.089844 1223.851562 1128.75 1248.238281 1138.070312 C 1275.46875 1148.480469 1301.230469 1162.828125 1327.28125 1176.148438 C 1344.761719 1185.089844 1361.96875 1195.359375 1380.941406 1180.980469 C 1401.191406 1165.621094 1415.300781 1145.261719 1408.039062 1119.429688 C 1401.710938 1096.941406 1390.238281 1075.710938 1379.558594 1054.679688 C 1364.921875 1025.851562 1342.140625 998.570312 1370.351562 965.261719 C 1372.570312 962.660156 1371.238281 956.429688 1370.539062 952.058594 C 1364.808594 916.589844 1368.101562 882.710938 1386.460938 855.769531 C 1378.769531 838.539062 1372.570312 824.628906 1366.761719 811.609375 C 1390.910156 813.210938 1410.859375 816.261719 1430.660156 815.441406 C 1462.691406 814.128906 1494.589844 809.808594 1526.609375 807.660156 C 1550.421875 806.058594 1572.871094 810.789062 1588.269531 831.019531 C 1616.179688 867.671875 1638.851562 905.941406 1618.460938 954.628906 C 1617.109375 957.851562 1615.921875 962.5 1617.230469 965.269531 C 1628.609375 989.371094 1618.550781 1010.339844 1610.550781 1031.710938 C 1498.289062 1145.460938 1385.761719 1259.5 1272.449219 1374.308594 C 1335.929688 1394.351562 1396.171875 1413.359375 1457.789062 1432.808594 Z M 1457.789062 1432.808594 "/>
</clipPath>
<clipPath id="clip-2">
<path clip-rule="nonzero" d="M 1457.789062 1432.808594 C 1392.03125 1546.75 1326.929688 1659.550781 1262 1772.078125 C 1261.21875 1771.878906 1260.441406 1771.671875 1259.671875 1771.460938 C 1283.070312 1698.589844 1306.171875 1626.628906 1329.28125 1554.648438 C 1327.210938 1554 1325.140625 1553.328125 1323.078125 1552.671875 C 1314.050781 1571.140625 1305.019531 1589.628906 1295.039062 1610.058594 C 1219.800781 1540.101562 1195.328125 1449.050781 1165.679688 1359.621094 C 1164.949219 1368.339844 1164.21875 1377.070312 1163.378906 1386.960938 C 1101.378906 1391.738281 1048.390625 1371.550781 998.65625 1339.910156 C 964.617188 1318.25 930.777344 1296.300781 896.695312 1274.730469 C 874.234375 1260.519531 851.277344 1247.109375 828.984375 1232.648438 C 810.746094 1220.820312 803.875 1204.089844 811.046875 1182.808594 C 825.367188 1140.300781 835.617188 1095.738281 855.445312 1055.980469 C 872.625 1021.550781 896.714844 988.171875 925.074219 962.390625 C 955.1875 935.019531 986.046875 909.941406 1004.808594 873.039062 C 1015.230469 852.558594 1032.171875 841.789062 1054.800781 839.078125 C 1069.371094 837.328125 1083.808594 834.53125 1098.378906 832.871094 C 1180.988281 823.460938 1200.96875 838.75 1213.980469 920.929688 C 1219.050781 952.960938 1212.828125 963.011719 1180.539062 960.761719 C 1152.628906 958.828125 1125.128906 950.109375 1097.589844 943.769531 C 1061.441406 935.460938 1036.121094 951.210938 1029.101562 987.53125 C 1026.671875 1000.121094 1025.761719 1013 1023.558594 1025.648438 C 1015.511719 1071.941406 1007.199219 1118.191406 999.074219 1163.910156 C 1090.109375 1076.46875 1153.058594 1141.910156 1215.71875 1212.449219 C 1203.648438 1193.339844 1191.570312 1174.21875 1179.398438 1154.960938 C 1199.589844 1132.089844 1223.851562 1128.75 1248.238281 1138.070312 C 1275.46875 1148.480469 1301.230469 1162.828125 1327.28125 1176.148438 C 1344.761719 1185.089844 1361.96875 1195.359375 1380.941406 1180.980469 C 1401.191406 1165.621094 1415.300781 1145.261719 1408.039062 1119.429688 C 1401.710938 1096.941406 1390.238281 1075.710938 1379.558594 1054.679688 C 1364.921875 1025.851562 1342.140625 998.570312 1370.351562 965.261719 C 1372.570312 962.660156 1371.238281 956.429688 1370.539062 952.058594 C 1364.808594 916.589844 1368.101562 882.710938 1386.460938 855.769531 C 1378.769531 838.539062 1372.570312 824.628906 1366.761719 811.609375 C 1390.910156 813.210938 1410.859375 816.261719 1430.660156 815.441406 C 1462.691406 814.128906 1494.589844 809.808594 1526.609375 807.660156 C 1550.421875 806.058594 1572.871094 810.789062 1588.269531 831.019531 C 1616.179688 867.671875 1638.851562 905.941406 1618.460938 954.628906 C 1617.109375 957.851562 1615.921875 962.5 1617.230469 965.269531 C 1628.609375 989.371094 1618.550781 1010.339844 1610.550781 1031.710938 C 1498.289062 1145.460938 1385.761719 1259.5 1272.449219 1374.308594 C 1335.929688 1394.351562 1396.171875 1413.359375 1457.789062 1432.808594 "/>
</clipPath>
<linearGradient id="linear-pattern-0" gradientUnits="userSpaceOnUse" x1="-0.00535178" y1="0" x2="1.015341" y2="0" gradientTransform="matrix(818.046, 0, 0, 818.046, 808.254, 1289.73)">
<stop offset="0" stop-color="rgb(100%, 88.233948%, 54.116821%)" stop-opacity="1"/>
<stop offset="0.0078125" stop-color="rgb(100%, 88.215637%, 53.990173%)" stop-opacity="1"/>
<stop offset="0.0117188" stop-color="rgb(100%, 88.139343%, 53.48053%)" stop-opacity="1"/>
<stop offset="0.015625" stop-color="rgb(100%, 88.082886%, 53.097534%)" stop-opacity="1"/>
<stop offset="0.0195313" stop-color="rgb(100%, 88.026428%, 52.714539%)" stop-opacity="1"/>
<stop offset="0.0234375" stop-color="rgb(100%, 87.969971%, 52.331543%)" stop-opacity="1"/>
<stop offset="0.0273438" stop-color="rgb(100%, 87.913513%, 51.947021%)" stop-opacity="1"/>
<stop offset="0.03125" stop-color="rgb(100%, 87.857056%, 51.564026%)" stop-opacity="1"/>
<stop offset="0.0351563" stop-color="rgb(100%, 87.799072%, 51.18103%)" stop-opacity="1"/>
<stop offset="0.0390625" stop-color="rgb(100%, 87.742615%, 50.798035%)" stop-opacity="1"/>
<stop offset="0.0429688" stop-color="rgb(100%, 87.686157%, 50.413513%)" stop-opacity="1"/>
<stop offset="0.046875" stop-color="rgb(100%, 87.6297%, 50.030518%)" stop-opacity="1"/>
<stop offset="0.0507813" stop-color="rgb(100%, 87.571716%, 49.647522%)" stop-opacity="1"/>
<stop offset="0.0546875" stop-color="rgb(100%, 87.515259%, 49.264526%)" stop-opacity="1"/>
<stop offset="0.0585938" stop-color="rgb(100%, 87.458801%, 48.880005%)" stop-opacity="1"/>
<stop offset="0.0625" stop-color="rgb(100%, 87.402344%, 48.497009%)" stop-opacity="1"/>
<stop offset="0.0664063" stop-color="rgb(100%, 87.34436%, 48.114014%)" stop-opacity="1"/>
<stop offset="0.0703125" stop-color="rgb(100%, 87.287903%, 47.731018%)" stop-opacity="1"/>
<stop offset="0.0742188" stop-color="rgb(100%, 87.231445%, 47.346497%)" stop-opacity="1"/>
<stop offset="0.078125" stop-color="rgb(100%, 87.174988%, 46.963501%)" stop-opacity="1"/>
<stop offset="0.0820313" stop-color="rgb(100%, 87.117004%, 46.580505%)" stop-opacity="1"/>
<stop offset="0.0859375" stop-color="rgb(100%, 87.060547%, 46.19751%)" stop-opacity="1"/>
<stop offset="0.0898438" stop-color="rgb(100%, 87.004089%, 45.812988%)" stop-opacity="1"/>
<stop offset="0.09375" stop-color="rgb(100%, 86.947632%, 45.429993%)" stop-opacity="1"/>
<stop offset="0.0976563" stop-color="rgb(100%, 86.891174%, 45.046997%)" stop-opacity="1"/>
<stop offset="0.101563" stop-color="rgb(100%, 86.834717%, 44.664001%)" stop-opacity="1"/>
<stop offset="0.105469" stop-color="rgb(100%, 86.776733%, 44.27948%)" stop-opacity="1"/>
<stop offset="0.109375" stop-color="rgb(100%, 86.720276%, 43.896484%)" stop-opacity="1"/>
<stop offset="0.113281" stop-color="rgb(100%, 86.663818%, 43.511963%)" stop-opacity="1"/>
<stop offset="0.117188" stop-color="rgb(100%, 86.607361%, 43.128967%)" stop-opacity="1"/>
<stop offset="0.121094" stop-color="rgb(100%, 86.549377%, 42.745972%)" stop-opacity="1"/>
<stop offset="0.125" stop-color="rgb(100%, 86.49292%, 42.362976%)" stop-opacity="1"/>
<stop offset="0.128906" stop-color="rgb(100%, 86.436462%, 41.978455%)" stop-opacity="1"/>
<stop offset="0.132813" stop-color="rgb(100%, 86.380005%, 41.595459%)" stop-opacity="1"/>
<stop offset="0.136719" stop-color="rgb(100%, 86.322021%, 41.212463%)" stop-opacity="1"/>
<stop offset="0.140625" stop-color="rgb(100%, 86.265564%, 40.829468%)" stop-opacity="1"/>
<stop offset="0.144531" stop-color="rgb(100%, 86.209106%, 40.444946%)" stop-opacity="1"/>
<stop offset="0.148438" stop-color="rgb(100%, 86.152649%, 40.061951%)" stop-opacity="1"/>
<stop offset="0.152344" stop-color="rgb(100%, 86.094666%, 39.678955%)" stop-opacity="1"/>
<stop offset="0.15625" stop-color="rgb(100%, 86.038208%, 39.295959%)" stop-opacity="1"/>
<stop offset="0.160156" stop-color="rgb(100%, 85.98175%, 38.911438%)" stop-opacity="1"/>
<stop offset="0.164063" stop-color="rgb(100%, 85.925293%, 38.528442%)" stop-opacity="1"/>
<stop offset="0.167969" stop-color="rgb(100%, 85.868835%, 38.145447%)" stop-opacity="1"/>
<stop offset="0.171875" stop-color="rgb(100%, 85.812378%, 37.762451%)" stop-opacity="1"/>
<stop offset="0.175781" stop-color="rgb(100%, 85.754395%, 37.37793%)" stop-opacity="1"/>
<stop offset="0.179688" stop-color="rgb(100%, 85.697937%, 36.994934%)" stop-opacity="1"/>
<stop offset="0.183594" stop-color="rgb(100%, 85.641479%, 36.611938%)" stop-opacity="1"/>
<stop offset="0.1875" stop-color="rgb(100%, 85.585022%, 36.228943%)" stop-opacity="1"/>
<stop offset="0.191406" stop-color="rgb(100%, 85.527039%, 35.844421%)" stop-opacity="1"/>
<stop offset="0.195313" stop-color="rgb(100%, 85.470581%, 35.461426%)" stop-opacity="1"/>
<stop offset="0.199219" stop-color="rgb(100%, 85.414124%, 35.07843%)" stop-opacity="1"/>
<stop offset="0.203125" stop-color="rgb(100%, 85.357666%, 34.695435%)" stop-opacity="1"/>
<stop offset="0.207031" stop-color="rgb(100%, 85.299683%, 34.310913%)" stop-opacity="1"/>
<stop offset="0.210938" stop-color="rgb(100%, 85.243225%, 33.927917%)" stop-opacity="1"/>
<stop offset="0.214844" stop-color="rgb(100%, 85.186768%, 33.544922%)" stop-opacity="1"/>
<stop offset="0.21875" stop-color="rgb(100%, 85.13031%, 33.161926%)" stop-opacity="1"/>
<stop offset="0.222656" stop-color="rgb(100%, 85.072327%, 32.777405%)" stop-opacity="1"/>
<stop offset="0.226563" stop-color="rgb(100%, 85.015869%, 32.394409%)" stop-opacity="1"/>
<stop offset="0.230469" stop-color="rgb(100%, 84.959412%, 32.011414%)" stop-opacity="1"/>
<stop offset="0.234375" stop-color="rgb(100%, 84.902954%, 31.628418%)" stop-opacity="1"/>
<stop offset="0.238281" stop-color="rgb(100%, 84.844971%, 31.243896%)" stop-opacity="1"/>
<stop offset="0.242188" stop-color="rgb(100%, 84.788513%, 30.860901%)" stop-opacity="1"/>
<stop offset="0.246094" stop-color="rgb(100%, 84.732056%, 30.477905%)" stop-opacity="1"/>
<stop offset="0.25" stop-color="rgb(100%, 84.675598%, 30.09491%)" stop-opacity="1"/>
<stop offset="0.253906" stop-color="rgb(100%, 84.619141%, 29.710388%)" stop-opacity="1"/>
<stop offset="0.257812" stop-color="rgb(100%, 84.562683%, 29.327393%)" stop-opacity="1"/>
<stop offset="0.261719" stop-color="rgb(100%, 84.5047%, 28.944397%)" stop-opacity="1"/>
<stop offset="0.265625" stop-color="rgb(100%, 84.448242%, 28.561401%)" stop-opacity="1"/>
<stop offset="0.269531" stop-color="rgb(100%, 84.391785%, 28.17688%)" stop-opacity="1"/>
<stop offset="0.273438" stop-color="rgb(100%, 84.335327%, 27.793884%)" stop-opacity="1"/>
<stop offset="0.277344" stop-color="rgb(100%, 84.277344%, 27.410889%)" stop-opacity="1"/>
<stop offset="0.28125" stop-color="rgb(100%, 84.220886%, 27.027893%)" stop-opacity="1"/>
<stop offset="0.285156" stop-color="rgb(100%, 84.164429%, 26.643372%)" stop-opacity="1"/>
<stop offset="0.289063" stop-color="rgb(100%, 84.107971%, 26.260376%)" stop-opacity="1"/>
<stop offset="0.292969" stop-color="rgb(100%, 84.049988%, 25.87738%)" stop-opacity="1"/>
<stop offset="0.296875" stop-color="rgb(100%, 83.99353%, 25.494385%)" stop-opacity="1"/>
<stop offset="0.300781" stop-color="rgb(100%, 83.937073%, 25.109863%)" stop-opacity="1"/>
<stop offset="0.304688" stop-color="rgb(100%, 83.880615%, 24.726868%)" stop-opacity="1"/>
<stop offset="0.308594" stop-color="rgb(100%, 83.822632%, 24.343872%)" stop-opacity="1"/>
<stop offset="0.3125" stop-color="rgb(100%, 83.766174%, 23.960876%)" stop-opacity="1"/>
<stop offset="0.316406" stop-color="rgb(100%, 83.709717%, 23.576355%)" stop-opacity="1"/>
<stop offset="0.320313" stop-color="rgb(100%, 83.653259%, 23.193359%)" stop-opacity="1"/>
<stop offset="0.324219" stop-color="rgb(100%, 83.596802%, 22.808838%)" stop-opacity="1"/>
<stop offset="0.328125" stop-color="rgb(100%, 83.540344%, 22.425842%)" stop-opacity="1"/>
<stop offset="0.332031" stop-color="rgb(100%, 83.482361%, 22.042847%)" stop-opacity="1"/>
<stop offset="0.335938" stop-color="rgb(100%, 83.425903%, 21.659851%)" stop-opacity="1"/>
<stop offset="0.339844" stop-color="rgb(100%, 83.369446%, 21.27533%)" stop-opacity="1"/>
<stop offset="0.34375" stop-color="rgb(100%, 83.312988%, 20.892334%)" stop-opacity="1"/>
<stop offset="0.347656" stop-color="rgb(100%, 83.255005%, 20.509338%)" stop-opacity="1"/>
<stop offset="0.351563" stop-color="rgb(100%, 83.198547%, 20.126343%)" stop-opacity="1"/>
<stop offset="0.355469" stop-color="rgb(100%, 83.14209%, 19.741821%)" stop-opacity="1"/>
<stop offset="0.359375" stop-color="rgb(100%, 83.085632%, 19.358826%)" stop-opacity="1"/>
<stop offset="0.363281" stop-color="rgb(100%, 83.027649%, 18.97583%)" stop-opacity="1"/>
<stop offset="0.367188" stop-color="rgb(100%, 82.971191%, 18.592834%)" stop-opacity="1"/>
<stop offset="0.371094" stop-color="rgb(100%, 82.914734%, 18.208313%)" stop-opacity="1"/>
<stop offset="0.375" stop-color="rgb(100%, 82.858276%, 17.825317%)" stop-opacity="1"/>
<stop offset="0.378906" stop-color="rgb(100%, 82.800293%, 17.442322%)" stop-opacity="1"/>
<stop offset="0.382813" stop-color="rgb(100%, 82.743835%, 17.059326%)" stop-opacity="1"/>
<stop offset="0.386719" stop-color="rgb(100%, 82.687378%, 16.674805%)" stop-opacity="1"/>
<stop offset="0.390625" stop-color="rgb(100%, 82.63092%, 16.291809%)" stop-opacity="1"/>
<stop offset="0.394531" stop-color="rgb(100%, 82.574463%, 15.908813%)" stop-opacity="1"/>
<stop offset="0.398438" stop-color="rgb(100%, 82.518005%, 15.525818%)" stop-opacity="1"/>
<stop offset="0.402344" stop-color="rgb(100%, 82.460022%, 15.141296%)" stop-opacity="1"/>
<stop offset="0.40625" stop-color="rgb(100%, 82.403564%, 14.758301%)" stop-opacity="1"/>
<stop offset="0.410156" stop-color="rgb(100%, 82.347107%, 14.375305%)" stop-opacity="1"/>
<stop offset="0.414063" stop-color="rgb(100%, 82.290649%, 13.99231%)" stop-opacity="1"/>
<stop offset="0.417969" stop-color="rgb(100%, 82.232666%, 13.607788%)" stop-opacity="1"/>
<stop offset="0.421875" stop-color="rgb(100%, 82.176208%, 13.224792%)" stop-opacity="1"/>
<stop offset="0.425781" stop-color="rgb(100%, 82.119751%, 12.841797%)" stop-opacity="1"/>
<stop offset="0.429688" stop-color="rgb(100%, 82.063293%, 12.458801%)" stop-opacity="1"/>
<stop offset="0.433594" stop-color="rgb(100%, 82.00531%, 12.07428%)" stop-opacity="1"/>
<stop offset="0.4375" stop-color="rgb(100%, 81.948853%, 11.691284%)" stop-opacity="1"/>
<stop offset="0.441406" stop-color="rgb(100%, 81.892395%, 11.308289%)" stop-opacity="1"/>
<stop offset="0.445313" stop-color="rgb(100%, 81.835938%, 10.925293%)" stop-opacity="1"/>
<stop offset="0.449219" stop-color="rgb(100%, 81.777954%, 10.540771%)" stop-opacity="1"/>
<stop offset="0.453125" stop-color="rgb(100%, 81.721497%, 10.157776%)" stop-opacity="1"/>
<stop offset="0.457031" stop-color="rgb(100%, 81.665039%, 9.77478%)" stop-opacity="1"/>
<stop offset="0.460938" stop-color="rgb(100%, 81.608582%, 9.391785%)" stop-opacity="1"/>
<stop offset="0.464844" stop-color="rgb(100%, 81.552124%, 9.007263%)" stop-opacity="1"/>
<stop offset="0.46875" stop-color="rgb(100%, 81.495667%, 8.624268%)" stop-opacity="1"/>
<stop offset="0.472656" stop-color="rgb(100%, 81.437683%, 8.241272%)" stop-opacity="1"/>
<stop offset="0.476563" stop-color="rgb(100%, 81.381226%, 7.858276%)" stop-opacity="1"/>
<stop offset="0.480469" stop-color="rgb(100%, 81.324768%, 7.473755%)" stop-opacity="1"/>
<stop offset="0.484375" stop-color="rgb(100%, 81.268311%, 7.090759%)" stop-opacity="1"/>
<stop offset="0.488281" stop-color="rgb(100%, 81.210327%, 6.707764%)" stop-opacity="1"/>
<stop offset="0.492188" stop-color="rgb(100%, 81.15387%, 6.324768%)" stop-opacity="1"/>
<stop offset="0.496094" stop-color="rgb(100%, 81.097412%, 5.940247%)" stop-opacity="1"/>
<stop offset="0.5" stop-color="rgb(100%, 81.040955%, 5.557251%)" stop-opacity="1"/>
<stop offset="0.503906" stop-color="rgb(100%, 80.982971%, 5.174255%)" stop-opacity="1"/>
<stop offset="0.507813" stop-color="rgb(100%, 80.926514%, 4.79126%)" stop-opacity="1"/>
<stop offset="0.511719" stop-color="rgb(100%, 80.870056%, 4.406738%)" stop-opacity="1"/>
<stop offset="0.515625" stop-color="rgb(100%, 80.813599%, 4.023743%)" stop-opacity="1"/>
<stop offset="0.519531" stop-color="rgb(100%, 80.755615%, 3.640747%)" stop-opacity="1"/>
<stop offset="0.523438" stop-color="rgb(100%, 80.699158%, 3.257751%)" stop-opacity="1"/>
<stop offset="0.527344" stop-color="rgb(100%, 80.6427%, 2.87323%)" stop-opacity="1"/>
<stop offset="0.53125" stop-color="rgb(100%, 80.586243%, 2.490234%)" stop-opacity="1"/>
<stop offset="0.535156" stop-color="rgb(100%, 80.529785%, 2.105713%)" stop-opacity="1"/>
<stop offset="0.539062" stop-color="rgb(100%, 80.473328%, 1.722717%)" stop-opacity="1"/>
<stop offset="0.542969" stop-color="rgb(99.966431%, 80.400085%, 1.486206%)" stop-opacity="1"/>
<stop offset="0.546875" stop-color="rgb(99.934387%, 80.328369%, 1.249695%)" stop-opacity="1"/>
<stop offset="0.554688" stop-color="rgb(99.821472%, 80.218506%, 1.377869%)" stop-opacity="1"/>
<stop offset="0.5625" stop-color="rgb(99.595642%, 80.001831%, 1.634216%)" stop-opacity="1"/>
<stop offset="0.570313" stop-color="rgb(99.369812%, 79.78363%, 1.89209%)" stop-opacity="1"/>
<stop offset="0.578125" stop-color="rgb(99.145508%, 79.566956%, 2.146912%)" stop-opacity="1"/>
<stop offset="0.585938" stop-color="rgb(98.919678%, 79.350281%, 2.401733%)" stop-opacity="1"/>
<stop offset="0.59375" stop-color="rgb(98.696899%, 79.133606%, 2.656555%)" stop-opacity="1"/>
<stop offset="0.601563" stop-color="rgb(98.474121%, 78.918457%, 2.911377%)" stop-opacity="1"/>
<stop offset="0.609375" stop-color="rgb(98.251343%, 78.703308%, 3.164673%)" stop-opacity="1"/>
<stop offset="0.617188" stop-color="rgb(98.028564%, 78.489685%, 3.416443%)" stop-opacity="1"/>
<stop offset="0.625" stop-color="rgb(97.807312%, 78.276062%, 3.668213%)" stop-opacity="1"/>
<stop offset="0.632812" stop-color="rgb(97.58606%, 78.062439%, 3.919983%)" stop-opacity="1"/>
<stop offset="0.640625" stop-color="rgb(97.366333%, 77.848816%, 4.171753%)" stop-opacity="1"/>
<stop offset="0.648438" stop-color="rgb(97.146606%, 77.636719%, 4.421997%)" stop-opacity="1"/>
<stop offset="0.65625" stop-color="rgb(96.92688%, 77.424622%, 4.670715%)" stop-opacity="1"/>
<stop offset="0.664063" stop-color="rgb(96.708679%, 77.21405%, 4.919434%)" stop-opacity="1"/>
<stop offset="0.671875" stop-color="rgb(96.490479%, 77.003479%, 5.168152%)" stop-opacity="1"/>
<stop offset="0.679688" stop-color="rgb(96.273804%, 76.792908%, 5.415344%)" stop-opacity="1"/>
<stop offset="0.6875" stop-color="rgb(96.057129%, 76.583862%, 5.661011%)" stop-opacity="1"/>
<stop offset="0.695313" stop-color="rgb(95.840454%, 76.376343%, 5.906677%)" stop-opacity="1"/>
<stop offset="0.703125" stop-color="rgb(95.625305%, 76.168823%, 6.152344%)" stop-opacity="1"/>
<stop offset="0.710938" stop-color="rgb(95.411682%, 75.961304%, 6.396484%)" stop-opacity="1"/>
<stop offset="0.71875" stop-color="rgb(95.198059%, 75.75531%, 6.639099%)" stop-opacity="1"/>
<stop offset="0.726562" stop-color="rgb(94.984436%, 75.549316%, 6.881714%)" stop-opacity="1"/>
<stop offset="0.734375" stop-color="rgb(94.772339%, 75.344849%, 7.122803%)" stop-opacity="1"/>
<stop offset="0.742188" stop-color="rgb(94.561768%, 75.140381%, 7.363892%)" stop-opacity="1"/>
<stop offset="0.75" stop-color="rgb(94.351196%, 74.937439%, 7.603455%)" stop-opacity="1"/>
<stop offset="0.757813" stop-color="rgb(94.140625%, 74.734497%, 7.841492%)" stop-opacity="1"/>
<stop offset="0.765625" stop-color="rgb(93.93158%, 74.533081%, 8.079529%)" stop-opacity="1"/>
<stop offset="0.773438" stop-color="rgb(93.72406%, 74.331665%, 8.31604%)" stop-opacity="1"/>
<stop offset="0.78125" stop-color="rgb(93.516541%, 74.131775%, 8.552551%)" stop-opacity="1"/>
<stop offset="0.789062" stop-color="rgb(93.310547%, 73.933411%, 8.786011%)" stop-opacity="1"/>
<stop offset="0.796875" stop-color="rgb(93.106079%, 73.735046%, 9.01947%)" stop-opacity="1"/>
<stop offset="0.804688" stop-color="rgb(92.901611%, 73.538208%, 9.251404%)" stop-opacity="1"/>
<stop offset="0.8125" stop-color="rgb(92.698669%, 73.342896%, 9.481812%)" stop-opacity="1"/>
<stop offset="0.820313" stop-color="rgb(92.497253%, 73.147583%, 9.712219%)" stop-opacity="1"/>
<stop offset="0.828125" stop-color="rgb(92.295837%, 72.953796%, 9.941101%)" stop-opacity="1"/>
<stop offset="0.835938" stop-color="rgb(92.095947%, 72.761536%, 10.168457%)" stop-opacity="1"/>
<stop offset="0.84375" stop-color="rgb(91.897583%, 72.569275%, 10.394287%)" stop-opacity="1"/>
<stop offset="0.851563" stop-color="rgb(91.700745%, 72.37854%, 10.618591%)" stop-opacity="1"/>
<stop offset="0.859375" stop-color="rgb(91.505432%, 72.189331%, 10.839844%)" stop-opacity="1"/>
<stop offset="0.867188" stop-color="rgb(91.31012%, 72.003174%, 11.061096%)" stop-opacity="1"/>
<stop offset="0.875" stop-color="rgb(91.117859%, 71.817017%, 11.280823%)" stop-opacity="1"/>
<stop offset="0.882812" stop-color="rgb(90.927124%, 71.632385%, 11.499023%)" stop-opacity="1"/>
<stop offset="0.890625" stop-color="rgb(90.737915%, 71.44928%, 11.714172%)" stop-opacity="1"/>
<stop offset="0.898438" stop-color="rgb(90.550232%, 71.269226%, 11.92627%)" stop-opacity="1"/>
<stop offset="0.90625" stop-color="rgb(90.364075%, 71.089172%, 12.138367%)" stop-opacity="1"/>
<stop offset="0.914063" stop-color="rgb(90.180969%, 70.91217%, 12.347412%)" stop-opacity="1"/>
<stop offset="0.921875" stop-color="rgb(90.000916%, 70.73822%, 12.553406%)" stop-opacity="1"/>
<stop offset="0.929688" stop-color="rgb(89.822388%, 70.565796%, 12.756348%)" stop-opacity="1"/>
<stop offset="0.9375" stop-color="rgb(89.646912%, 70.396423%, 12.956238%)" stop-opacity="1"/>
<stop offset="0.953125" stop-color="rgb(89.390564%, 70.149231%, 13.246155%)" stop-opacity="1"/>
<stop offset="0.96875" stop-color="rgb(89.064026%, 69.833374%, 13.618469%)" stop-opacity="1"/>
<stop offset="1" stop-color="rgb(88.766479%, 69.544983%, 13.957214%)" stop-opacity="1"/>
</linearGradient>
<clipPath id="clip-3">
<path clip-rule="nonzero" d="M 1300 831 L 2192 831 L 2192 1859 L 1300 1859 Z M 1300 831 "/>
</clipPath>
<clipPath id="clip-4">
<path clip-rule="nonzero" d="M 2158.890625 1240.988281 C 2100.179688 1278.5 2041.359375 1315.898438 1981.449219 1351.429688 C 1937.5 1377.488281 1889.710938 1391.679688 1837.640625 1386.808594 C 1835.550781 1377.019531 1833.878906 1369.160156 1830.660156 1353.980469 C 1803.96875 1451.328125 1779.449219 1541.378906 1704.121094 1609.789062 C 1693.949219 1588.519531 1685.089844 1570.011719 1676.238281 1551.511719 C 1674.140625 1552.261719 1672.039062 1553.011719 1669.941406 1553.769531 C 1693.351562 1626.460938 1716.761719 1699.140625 1740.871094 1774 C 1657.488281 1786.230469 1581.871094 1817.769531 1508.878906 1856.921875 C 1502.820312 1860.171875 1491.660156 1857.289062 1484.261719 1854.078125 C 1444.800781 1836.878906 1406.589844 1816.539062 1366.378906 1801.46875 C 1344.808594 1793.390625 1322.429688 1787.5 1300.121094 1781.859375 C 1445.449219 1630.710938 1591.078125 1479.238281 1738.320312 1326.089844 C 1671.539062 1312.921875 1609.109375 1300.609375 1544.011719 1287.769531 C 1565.230469 1251 1586.371094 1214.371094 1607.441406 1177.859375 C 1624.03125 1188.609375 1647.25 1189.589844 1670.378906 1177.339844 C 1696.238281 1163.640625 1722.070312 1149.460938 1749.191406 1138.738281 C 1774.421875 1128.769531 1799.429688 1131.488281 1820.710938 1154.960938 C 1808.25 1174.570312 1795.941406 1193.949219 1785.949219 1209.691406 C 1817.539062 1184.078125 1847.910156 1150.058594 1885.820312 1131.191406 C 1929.820312 1109.28125 1970.691406 1136.238281 2003.21875 1165.679688 C 1995.199219 1129.460938 1986.960938 1095.21875 1980.21875 1060.691406 C 1976.539062 1041.839844 1975.941406 1022.410156 1973.03125 1003.378906 C 1964.058594 944.609375 1940.488281 931.789062 1883.140625 948.839844 C 1858.28125 956.230469 1831.320312 957.53125 1805.160156 959.261719 C 1789.390625 960.308594 1781.628906 949.359375 1784.628906 933.820312 C 1788.78125 912.308594 1794.058594 890.988281 1799.449219 869.738281 C 1806.039062 843.789062 1824.148438 831.429688 1849.921875 832 C 1878.25 832.621094 1906.539062 835.320312 1934.839844 837.308594 C 1964.679688 839.410156 1983.628906 854.96875 2000.46875 880.210938 C 2018.878906 907.808594 2044.910156 930.308594 2067.398438 955.21875 C 2088.109375 978.171875 2114.339844 998.460938 2127.808594 1025.140625 C 2151.171875 1071.390625 2168.53125 1121.03125 2184.660156 1170.46875 C 2198.03125 1211.441406 2194.109375 1218.480469 2158.890625 1240.988281 Z M 2158.890625 1240.988281 "/>
</clipPath>
<clipPath id="clip-5">
<path clip-rule="nonzero" d="M 2158.890625 1240.988281 C 2100.179688 1278.5 2041.359375 1315.898438 1981.449219 1351.429688 C 1937.5 1377.488281 1889.710938 1391.679688 1837.640625 1386.808594 C 1835.550781 1377.019531 1833.878906 1369.160156 1830.660156 1353.980469 C 1803.96875 1451.328125 1779.449219 1541.378906 1704.121094 1609.789062 C 1693.949219 1588.519531 1685.089844 1570.011719 1676.238281 1551.511719 C 1674.140625 1552.261719 1672.039062 1553.011719 1669.941406 1553.769531 C 1693.351562 1626.460938 1716.761719 1699.140625 1740.871094 1774 C 1657.488281 1786.230469 1581.871094 1817.769531 1508.878906 1856.921875 C 1502.820312 1860.171875 1491.660156 1857.289062 1484.261719 1854.078125 C 1444.800781 1836.878906 1406.589844 1816.539062 1366.378906 1801.46875 C 1344.808594 1793.390625 1322.429688 1787.5 1300.121094 1781.859375 C 1445.449219 1630.710938 1591.078125 1479.238281 1738.320312 1326.089844 C 1671.539062 1312.921875 1609.109375 1300.609375 1544.011719 1287.769531 C 1565.230469 1251 1586.371094 1214.371094 1607.441406 1177.859375 C 1624.03125 1188.609375 1647.25 1189.589844 1670.378906 1177.339844 C 1696.238281 1163.640625 1722.070312 1149.460938 1749.191406 1138.738281 C 1774.421875 1128.769531 1799.429688 1131.488281 1820.710938 1154.960938 C 1808.25 1174.570312 1795.941406 1193.949219 1785.949219 1209.691406 C 1817.539062 1184.078125 1847.910156 1150.058594 1885.820312 1131.191406 C 1929.820312 1109.28125 1970.691406 1136.238281 2003.21875 1165.679688 C 1995.199219 1129.460938 1986.960938 1095.21875 1980.21875 1060.691406 C 1976.539062 1041.839844 1975.941406 1022.410156 1973.03125 1003.378906 C 1964.058594 944.609375 1940.488281 931.789062 1883.140625 948.839844 C 1858.28125 956.230469 1831.320312 957.53125 1805.160156 959.261719 C 1789.390625 960.308594 1781.628906 949.359375 1784.628906 933.820312 C 1788.78125 912.308594 1794.058594 890.988281 1799.449219 869.738281 C 1806.039062 843.789062 1824.148438 831.429688 1849.921875 832 C 1878.25 832.621094 1906.539062 835.320312 1934.839844 837.308594 C 1964.679688 839.410156 1983.628906 854.96875 2000.46875 880.210938 C 2018.878906 907.808594 2044.910156 930.308594 2067.398438 955.21875 C 2088.109375 978.171875 2114.339844 998.460938 2127.808594 1025.140625 C 2151.171875 1071.390625 2168.53125 1121.03125 2184.660156 1170.46875 C 2198.03125 1211.441406 2194.109375 1218.480469 2158.890625 1240.988281 "/>
</clipPath>
<linearGradient id="linear-pattern-1" gradientUnits="userSpaceOnUse" x1="0.000000000000000444" y1="0" x2="1.007043" y2="0" gradientTransform="matrix(891.63, 0, 0, 891.63, 1300.12, 1345.17)">
<stop offset="0" stop-color="rgb(100%, 88.233948%, 54.116821%)" stop-opacity="1"/>
<stop offset="0.00390625" stop-color="rgb(100%, 88.17749%, 53.738403%)" stop-opacity="1"/>
<stop offset="0.0078125" stop-color="rgb(100%, 88.122559%, 53.359985%)" stop-opacity="1"/>
<stop offset="0.0117188" stop-color="rgb(100%, 88.066101%, 52.981567%)" stop-opacity="1"/>
<stop offset="0.015625" stop-color="rgb(100%, 88.009644%, 52.603149%)" stop-opacity="1"/>
<stop offset="0.0195312" stop-color="rgb(100%, 87.953186%, 52.224731%)" stop-opacity="1"/>
<stop offset="0.0234375" stop-color="rgb(100%, 87.898254%, 51.847839%)" stop-opacity="1"/>
<stop offset="0.0273438" stop-color="rgb(100%, 87.841797%, 51.469421%)" stop-opacity="1"/>
<stop offset="0.03125" stop-color="rgb(100%, 87.786865%, 51.091003%)" stop-opacity="1"/>
<stop offset="0.0351562" stop-color="rgb(100%, 87.730408%, 50.712585%)" stop-opacity="1"/>
<stop offset="0.0390625" stop-color="rgb(100%, 87.67395%, 50.334167%)" stop-opacity="1"/>
<stop offset="0.0429688" stop-color="rgb(100%, 87.617493%, 49.95575%)" stop-opacity="1"/>
<stop offset="0.046875" stop-color="rgb(100%, 87.562561%, 49.577332%)" stop-opacity="1"/>
<stop offset="0.0507812" stop-color="rgb(100%, 87.506104%, 49.198914%)" stop-opacity="1"/>
<stop offset="0.0546875" stop-color="rgb(100%, 87.449646%, 48.820496%)" stop-opacity="1"/>
<stop offset="0.0585938" stop-color="rgb(100%, 87.393188%, 48.442078%)" stop-opacity="1"/>
<stop offset="0.0625" stop-color="rgb(100%, 87.338257%, 48.065186%)" stop-opacity="1"/>
<stop offset="0.0664062" stop-color="rgb(100%, 87.281799%, 47.686768%)" stop-opacity="1"/>
<stop offset="0.0703125" stop-color="rgb(100%, 87.225342%, 47.30835%)" stop-opacity="1"/>
<stop offset="0.0742188" stop-color="rgb(100%, 87.168884%, 46.929932%)" stop-opacity="1"/>
<stop offset="0.078125" stop-color="rgb(100%, 87.113953%, 46.551514%)" stop-opacity="1"/>
<stop offset="0.0820312" stop-color="rgb(100%, 87.057495%, 46.173096%)" stop-opacity="1"/>
<stop offset="0.0859375" stop-color="rgb(100%, 87.001038%, 45.794678%)" stop-opacity="1"/>
<stop offset="0.0898438" stop-color="rgb(100%, 86.94458%, 45.41626%)" stop-opacity="1"/>
<stop offset="0.09375" stop-color="rgb(100%, 86.889648%, 45.037842%)" stop-opacity="1"/>
<stop offset="0.0976562" stop-color="rgb(100%, 86.833191%, 44.659424%)" stop-opacity="1"/>
<stop offset="0.101562" stop-color="rgb(100%, 86.778259%, 44.282532%)" stop-opacity="1"/>
<stop offset="0.105469" stop-color="rgb(100%, 86.721802%, 43.904114%)" stop-opacity="1"/>
<stop offset="0.109375" stop-color="rgb(100%, 86.665344%, 43.525696%)" stop-opacity="1"/>
<stop offset="0.113281" stop-color="rgb(100%, 86.608887%, 43.147278%)" stop-opacity="1"/>
<stop offset="0.117188" stop-color="rgb(100%, 86.553955%, 42.76886%)" stop-opacity="1"/>
<stop offset="0.121094" stop-color="rgb(100%, 86.497498%, 42.390442%)" stop-opacity="1"/>
<stop offset="0.125" stop-color="rgb(100%, 86.44104%, 42.012024%)" stop-opacity="1"/>
<stop offset="0.128906" stop-color="rgb(100%, 86.384583%, 41.633606%)" stop-opacity="1"/>
<stop offset="0.132812" stop-color="rgb(100%, 86.329651%, 41.255188%)" stop-opacity="1"/>
<stop offset="0.136719" stop-color="rgb(100%, 86.273193%, 40.87677%)" stop-opacity="1"/>
<stop offset="0.140625" stop-color="rgb(100%, 86.216736%, 40.499878%)" stop-opacity="1"/>
<stop offset="0.144531" stop-color="rgb(100%, 86.160278%, 40.12146%)" stop-opacity="1"/>
<stop offset="0.148438" stop-color="rgb(100%, 86.105347%, 39.743042%)" stop-opacity="1"/>
<stop offset="0.152344" stop-color="rgb(100%, 86.048889%, 39.364624%)" stop-opacity="1"/>
<stop offset="0.15625" stop-color="rgb(100%, 85.992432%, 38.986206%)" stop-opacity="1"/>
<stop offset="0.160156" stop-color="rgb(100%, 85.935974%, 38.607788%)" stop-opacity="1"/>
<stop offset="0.164062" stop-color="rgb(100%, 85.881042%, 38.22937%)" stop-opacity="1"/>
<stop offset="0.167969" stop-color="rgb(100%, 85.824585%, 37.850952%)" stop-opacity="1"/>
<stop offset="0.171875" stop-color="rgb(100%, 85.768127%, 37.472534%)" stop-opacity="1"/>
<stop offset="0.175781" stop-color="rgb(100%, 85.71167%, 37.094116%)" stop-opacity="1"/>
<stop offset="0.179688" stop-color="rgb(100%, 85.656738%, 36.717224%)" stop-opacity="1"/>
<stop offset="0.183594" stop-color="rgb(100%, 85.600281%, 36.338806%)" stop-opacity="1"/>
<stop offset="0.1875" stop-color="rgb(100%, 85.545349%, 35.960388%)" stop-opacity="1"/>
<stop offset="0.191406" stop-color="rgb(100%, 85.488892%, 35.58197%)" stop-opacity="1"/>
<stop offset="0.195312" stop-color="rgb(100%, 85.432434%, 35.203552%)" stop-opacity="1"/>
<stop offset="0.199219" stop-color="rgb(100%, 85.375977%, 34.825134%)" stop-opacity="1"/>
<stop offset="0.203125" stop-color="rgb(100%, 85.321045%, 34.446716%)" stop-opacity="1"/>
<stop offset="0.207031" stop-color="rgb(100%, 85.264587%, 34.068298%)" stop-opacity="1"/>
<stop offset="0.210938" stop-color="rgb(100%, 85.20813%, 33.68988%)" stop-opacity="1"/>
<stop offset="0.214844" stop-color="rgb(100%, 85.151672%, 33.311462%)" stop-opacity="1"/>
<stop offset="0.21875" stop-color="rgb(100%, 85.096741%, 32.93457%)" stop-opacity="1"/>
<stop offset="0.222656" stop-color="rgb(100%, 85.040283%, 32.556152%)" stop-opacity="1"/>
<stop offset="0.226562" stop-color="rgb(100%, 84.983826%, 32.177734%)" stop-opacity="1"/>
<stop offset="0.230469" stop-color="rgb(100%, 84.927368%, 31.799316%)" stop-opacity="1"/>
<stop offset="0.234375" stop-color="rgb(100%, 84.872437%, 31.420898%)" stop-opacity="1"/>
<stop offset="0.238281" stop-color="rgb(100%, 84.815979%, 31.04248%)" stop-opacity="1"/>
<stop offset="0.242188" stop-color="rgb(100%, 84.759521%, 30.664062%)" stop-opacity="1"/>
<stop offset="0.246094" stop-color="rgb(100%, 84.703064%, 30.285645%)" stop-opacity="1"/>
<stop offset="0.25" stop-color="rgb(100%, 84.648132%, 29.907227%)" stop-opacity="1"/>
<stop offset="0.253906" stop-color="rgb(100%, 84.591675%, 29.528809%)" stop-opacity="1"/>
<stop offset="0.257812" stop-color="rgb(100%, 84.535217%, 29.151917%)" stop-opacity="1"/>
<stop offset="0.261719" stop-color="rgb(100%, 84.47876%, 28.773499%)" stop-opacity="1"/>
<stop offset="0.265625" stop-color="rgb(100%, 84.423828%, 28.395081%)" stop-opacity="1"/>
<stop offset="0.269531" stop-color="rgb(100%, 84.367371%, 28.016663%)" stop-opacity="1"/>
<stop offset="0.273437" stop-color="rgb(100%, 84.312439%, 27.638245%)" stop-opacity="1"/>
<stop offset="0.277344" stop-color="rgb(100%, 84.255981%, 27.259827%)" stop-opacity="1"/>
<stop offset="0.28125" stop-color="rgb(100%, 84.199524%, 26.881409%)" stop-opacity="1"/>
<stop offset="0.285156" stop-color="rgb(100%, 84.143066%, 26.502991%)" stop-opacity="1"/>
<stop offset="0.289062" stop-color="rgb(100%, 84.088135%, 26.124573%)" stop-opacity="1"/>
<stop offset="0.292969" stop-color="rgb(100%, 84.031677%, 25.746155%)" stop-opacity="1"/>
<stop offset="0.296875" stop-color="rgb(100%, 83.97522%, 25.369263%)" stop-opacity="1"/>
<stop offset="0.300781" stop-color="rgb(100%, 83.918762%, 24.990845%)" stop-opacity="1"/>
<stop offset="0.304688" stop-color="rgb(100%, 83.863831%, 24.612427%)" stop-opacity="1"/>
<stop offset="0.308594" stop-color="rgb(100%, 83.807373%, 24.234009%)" stop-opacity="1"/>
<stop offset="0.3125" stop-color="rgb(100%, 83.750916%, 23.855591%)" stop-opacity="1"/>
<stop offset="0.316406" stop-color="rgb(100%, 83.694458%, 23.477173%)" stop-opacity="1"/>
<stop offset="0.320312" stop-color="rgb(100%, 83.639526%, 23.098755%)" stop-opacity="1"/>
<stop offset="0.324219" stop-color="rgb(100%, 83.583069%, 22.720337%)" stop-opacity="1"/>
<stop offset="0.328125" stop-color="rgb(100%, 83.526611%, 22.341919%)" stop-opacity="1"/>
<stop offset="0.332031" stop-color="rgb(100%, 83.470154%, 21.963501%)" stop-opacity="1"/>
<stop offset="0.335938" stop-color="rgb(100%, 83.415222%, 21.586609%)" stop-opacity="1"/>
<stop offset="0.339844" stop-color="rgb(100%, 83.358765%, 21.208191%)" stop-opacity="1"/>
<stop offset="0.34375" stop-color="rgb(100%, 83.303833%, 20.829773%)" stop-opacity="1"/>
<stop offset="0.347656" stop-color="rgb(100%, 83.247375%, 20.451355%)" stop-opacity="1"/>
<stop offset="0.351562" stop-color="rgb(100%, 83.190918%, 20.072937%)" stop-opacity="1"/>
<stop offset="0.355469" stop-color="rgb(100%, 83.13446%, 19.694519%)" stop-opacity="1"/>
<stop offset="0.359375" stop-color="rgb(100%, 83.079529%, 19.316101%)" stop-opacity="1"/>
<stop offset="0.363281" stop-color="rgb(100%, 83.023071%, 18.937683%)" stop-opacity="1"/>
<stop offset="0.367187" stop-color="rgb(100%, 82.966614%, 18.559265%)" stop-opacity="1"/>
<stop offset="0.371094" stop-color="rgb(100%, 82.910156%, 18.180847%)" stop-opacity="1"/>
<stop offset="0.375" stop-color="rgb(100%, 82.855225%, 17.803955%)" stop-opacity="1"/>
<stop offset="0.378906" stop-color="rgb(100%, 82.798767%, 17.425537%)" stop-opacity="1"/>
<stop offset="0.382813" stop-color="rgb(100%, 82.74231%, 17.047119%)" stop-opacity="1"/>
<stop offset="0.386719" stop-color="rgb(100%, 82.685852%, 16.668701%)" stop-opacity="1"/>
<stop offset="0.390625" stop-color="rgb(100%, 82.63092%, 16.290283%)" stop-opacity="1"/>
<stop offset="0.394531" stop-color="rgb(100%, 82.574463%, 15.911865%)" stop-opacity="1"/>
<stop offset="0.398438" stop-color="rgb(100%, 82.518005%, 15.533447%)" stop-opacity="1"/>
<stop offset="0.402344" stop-color="rgb(100%, 82.461548%, 15.155029%)" stop-opacity="1"/>
<stop offset="0.40625" stop-color="rgb(100%, 82.406616%, 14.776611%)" stop-opacity="1"/>
<stop offset="0.410156" stop-color="rgb(100%, 82.350159%, 14.398193%)" stop-opacity="1"/>
<stop offset="0.414062" stop-color="rgb(100%, 82.293701%, 14.021301%)" stop-opacity="1"/>
<stop offset="0.417969" stop-color="rgb(100%, 82.237244%, 13.642883%)" stop-opacity="1"/>
<stop offset="0.421875" stop-color="rgb(100%, 82.182312%, 13.264465%)" stop-opacity="1"/>
<stop offset="0.425781" stop-color="rgb(100%, 82.125854%, 12.886047%)" stop-opacity="1"/>
<stop offset="0.429688" stop-color="rgb(100%, 82.070923%, 12.507629%)" stop-opacity="1"/>
<stop offset="0.433594" stop-color="rgb(100%, 82.014465%, 12.129211%)" stop-opacity="1"/>
<stop offset="0.4375" stop-color="rgb(100%, 81.958008%, 11.750793%)" stop-opacity="1"/>
<stop offset="0.441406" stop-color="rgb(100%, 81.90155%, 11.372375%)" stop-opacity="1"/>
<stop offset="0.445312" stop-color="rgb(100%, 81.846619%, 10.995483%)" stop-opacity="1"/>
<stop offset="0.449219" stop-color="rgb(100%, 81.790161%, 10.617065%)" stop-opacity="1"/>
<stop offset="0.453125" stop-color="rgb(100%, 81.733704%, 10.238647%)" stop-opacity="1"/>
<stop offset="0.457031" stop-color="rgb(100%, 81.677246%, 9.860229%)" stop-opacity="1"/>
<stop offset="0.460938" stop-color="rgb(100%, 81.622314%, 9.481812%)" stop-opacity="1"/>
<stop offset="0.464844" stop-color="rgb(100%, 81.565857%, 9.103394%)" stop-opacity="1"/>
<stop offset="0.46875" stop-color="rgb(100%, 81.509399%, 8.724976%)" stop-opacity="1"/>
<stop offset="0.472656" stop-color="rgb(100%, 81.452942%, 8.346558%)" stop-opacity="1"/>
<stop offset="0.476563" stop-color="rgb(100%, 81.39801%, 7.96814%)" stop-opacity="1"/>
<stop offset="0.480469" stop-color="rgb(100%, 81.341553%, 7.589722%)" stop-opacity="1"/>
<stop offset="0.484375" stop-color="rgb(100%, 81.285095%, 7.21283%)" stop-opacity="1"/>
<stop offset="0.488281" stop-color="rgb(100%, 81.228638%, 6.834412%)" stop-opacity="1"/>
<stop offset="0.492188" stop-color="rgb(100%, 81.173706%, 6.455994%)" stop-opacity="1"/>
<stop offset="0.496094" stop-color="rgb(100%, 81.117249%, 6.077576%)" stop-opacity="1"/>
<stop offset="0.5" stop-color="rgb(100%, 81.062317%, 5.699158%)" stop-opacity="1"/>
<stop offset="0.503906" stop-color="rgb(100%, 81.005859%, 5.32074%)" stop-opacity="1"/>
<stop offset="0.507812" stop-color="rgb(100%, 80.949402%, 4.942322%)" stop-opacity="1"/>
<stop offset="0.511719" stop-color="rgb(100%, 80.892944%, 4.563904%)" stop-opacity="1"/>
<stop offset="0.515625" stop-color="rgb(100%, 80.838013%, 4.185486%)" stop-opacity="1"/>
<stop offset="0.519531" stop-color="rgb(100%, 80.781555%, 3.807068%)" stop-opacity="1"/>
<stop offset="0.523438" stop-color="rgb(100%, 80.725098%, 3.430176%)" stop-opacity="1"/>
<stop offset="0.527344" stop-color="rgb(100%, 80.66864%, 3.051758%)" stop-opacity="1"/>
<stop offset="0.53125" stop-color="rgb(100%, 80.613708%, 2.67334%)" stop-opacity="1"/>
<stop offset="0.535156" stop-color="rgb(100%, 80.557251%, 2.294922%)" stop-opacity="1"/>
<stop offset="0.539062" stop-color="rgb(100%, 80.500793%, 1.916504%)" stop-opacity="1"/>
<stop offset="0.542969" stop-color="rgb(99.996948%, 80.44281%, 1.548767%)" stop-opacity="1"/>
<stop offset="0.546875" stop-color="rgb(99.993896%, 80.386353%, 1.18103%)" stop-opacity="1"/>
<stop offset="0.554687" stop-color="rgb(99.882507%, 80.278015%, 1.307678%)" stop-opacity="1"/>
<stop offset="0.5625" stop-color="rgb(99.659729%, 80.062866%, 1.560974%)" stop-opacity="1"/>
<stop offset="0.570313" stop-color="rgb(99.436951%, 79.849243%, 1.81427%)" stop-opacity="1"/>
<stop offset="0.578125" stop-color="rgb(99.214172%, 79.634094%, 2.067566%)" stop-opacity="1"/>
<stop offset="0.585938" stop-color="rgb(98.99292%, 79.420471%, 2.319336%)" stop-opacity="1"/>
<stop offset="0.59375" stop-color="rgb(98.773193%, 79.206848%, 2.571106%)" stop-opacity="1"/>
<stop offset="0.601562" stop-color="rgb(98.551941%, 78.994751%, 2.82135%)" stop-opacity="1"/>
<stop offset="0.609375" stop-color="rgb(98.332214%, 78.781128%, 3.071594%)" stop-opacity="1"/>
<stop offset="0.617188" stop-color="rgb(98.112488%, 78.570557%, 3.321838%)" stop-opacity="1"/>
<stop offset="0.625" stop-color="rgb(97.894287%, 78.358459%, 3.570557%)" stop-opacity="1"/>
<stop offset="0.632812" stop-color="rgb(97.676086%, 78.147888%, 3.819275%)" stop-opacity="1"/>
<stop offset="0.640625" stop-color="rgb(97.457886%, 77.937317%, 4.066467%)" stop-opacity="1"/>
<stop offset="0.648437" stop-color="rgb(97.241211%, 77.728271%, 4.31366%)" stop-opacity="1"/>
<stop offset="0.65625" stop-color="rgb(97.024536%, 77.519226%, 4.559326%)" stop-opacity="1"/>
<stop offset="0.664063" stop-color="rgb(96.807861%, 77.310181%, 4.804993%)" stop-opacity="1"/>
<stop offset="0.671875" stop-color="rgb(96.592712%, 77.102661%, 5.050659%)" stop-opacity="1"/>
<stop offset="0.679688" stop-color="rgb(96.379089%, 76.895142%, 5.2948%)" stop-opacity="1"/>
<stop offset="0.6875" stop-color="rgb(96.165466%, 76.689148%, 5.53894%)" stop-opacity="1"/>
<stop offset="0.695312" stop-color="rgb(95.951843%, 76.483154%, 5.781555%)" stop-opacity="1"/>
<stop offset="0.703125" stop-color="rgb(95.73822%, 76.277161%, 6.022644%)" stop-opacity="1"/>
<stop offset="0.710938" stop-color="rgb(95.526123%, 76.072693%, 6.265259%)" stop-opacity="1"/>
<stop offset="0.71875" stop-color="rgb(95.315552%, 75.869751%, 6.504822%)" stop-opacity="1"/>
<stop offset="0.726562" stop-color="rgb(95.10498%, 75.665283%, 6.744385%)" stop-opacity="1"/>
<stop offset="0.734375" stop-color="rgb(94.894409%, 75.463867%, 6.983948%)" stop-opacity="1"/>
<stop offset="0.742187" stop-color="rgb(94.685364%, 75.262451%, 7.220459%)" stop-opacity="1"/>
<stop offset="0.75" stop-color="rgb(94.477844%, 75.061035%, 7.45697%)" stop-opacity="1"/>
<stop offset="0.757813" stop-color="rgb(94.270325%, 74.859619%, 7.693481%)" stop-opacity="1"/>
<stop offset="0.765625" stop-color="rgb(94.062805%, 74.661255%, 7.929993%)" stop-opacity="1"/>
<stop offset="0.773438" stop-color="rgb(93.858337%, 74.462891%, 8.163452%)" stop-opacity="1"/>
<stop offset="0.78125" stop-color="rgb(93.65387%, 74.264526%, 8.396912%)" stop-opacity="1"/>
<stop offset="0.789062" stop-color="rgb(93.449402%, 74.067688%, 8.628845%)" stop-opacity="1"/>
<stop offset="0.796875" stop-color="rgb(93.24646%, 73.87085%, 8.859253%)" stop-opacity="1"/>
<stop offset="0.804688" stop-color="rgb(93.045044%, 73.675537%, 9.089661%)" stop-opacity="1"/>
<stop offset="0.8125" stop-color="rgb(92.843628%, 73.48175%, 9.318542%)" stop-opacity="1"/>
<stop offset="0.820312" stop-color="rgb(92.642212%, 73.28949%, 9.545898%)" stop-opacity="1"/>
<stop offset="0.828125" stop-color="rgb(92.443848%, 73.097229%, 9.771729%)" stop-opacity="1"/>
<stop offset="0.835937" stop-color="rgb(92.245483%, 72.904968%, 9.997559%)" stop-opacity="1"/>
<stop offset="0.84375" stop-color="rgb(92.050171%, 72.715759%, 10.221863%)" stop-opacity="1"/>
<stop offset="0.851563" stop-color="rgb(91.854858%, 72.52655%, 10.443115%)" stop-opacity="1"/>
<stop offset="0.859375" stop-color="rgb(91.659546%, 72.340393%, 10.664368%)" stop-opacity="1"/>
<stop offset="0.867188" stop-color="rgb(91.467285%, 72.154236%, 10.882568%)" stop-opacity="1"/>
<stop offset="0.875" stop-color="rgb(91.27655%, 71.969604%, 11.100769%)" stop-opacity="1"/>
<stop offset="0.882812" stop-color="rgb(91.087341%, 71.786499%, 11.317444%)" stop-opacity="1"/>
<stop offset="0.890625" stop-color="rgb(90.898132%, 71.603394%, 11.531067%)" stop-opacity="1"/>
<stop offset="0.898438" stop-color="rgb(90.711975%, 71.42334%, 11.743164%)" stop-opacity="1"/>
<stop offset="0.90625" stop-color="rgb(90.527344%, 71.246338%, 11.953735%)" stop-opacity="1"/>
<stop offset="0.914062" stop-color="rgb(90.344238%, 71.069336%, 12.162781%)" stop-opacity="1"/>
<stop offset="0.921875" stop-color="rgb(90.162659%, 70.895386%, 12.367249%)" stop-opacity="1"/>
<stop offset="0.929687" stop-color="rgb(89.985657%, 70.722961%, 12.57019%)" stop-opacity="1"/>
<stop offset="0.9375" stop-color="rgb(89.808655%, 70.552063%, 12.771606%)" stop-opacity="1"/>
<stop offset="0.953125" stop-color="rgb(89.552307%, 70.303345%, 13.063049%)" stop-opacity="1"/>
<stop offset="0.96875" stop-color="rgb(89.221191%, 69.984436%, 13.439941%)" stop-opacity="1"/>
<stop offset="0.984375" stop-color="rgb(88.909912%, 69.685364%, 13.793945%)" stop-opacity="1"/>
<stop offset="1" stop-color="rgb(88.693237%, 69.476318%, 14.039612%)" stop-opacity="1"/>
</linearGradient>
</defs>

<g clip-path="url(#clip-0)">
<g clip-path="url(#clip-1)">
<g clip-path="url(#clip-2)">
<path fill-rule="nonzero" fill="url(#linear-pattern-0)" d="M 803.875 806.058594 L 803.875 1772.078125 L 1638.851562 1772.078125 L 1638.851562 806.058594 Z M 803.875 806.058594 "/>
</g>
</g>
</g>
<g clip-path="url(#clip-3)">
<g clip-path="url(#clip-4)">
<g clip-path="url(#clip-5)">
<path fill-rule="nonzero" fill="url(#linear-pattern-1)" d="M 1300.121094 831.429688 L 1300.121094 1860.171875 L 2198.03125 1860.171875 L 2198.03125 831.429688 Z M 1300.121094 831.429688 "/>
</g>
</g>
</g>
<path fill-rule="nonzero" fill="rgb(100%, 94.921875%, 0%)" fill-opacity="1" d="M 724.441406 1998.898438 L 768.511719 1998.898438 L 768.511719 2051.910156 C 761.964844 2056.691406 754.984375 2060.179688 747.582031 2062.390625 C 740.179688 2064.609375 732.34375 2065.710938 724.085938 2065.710938 C 713.523438 2065.710938 703.964844 2064.078125 695.410156 2060.800781 C 686.855469 2057.53125 679.539062 2052.96875 673.464844 2047.128906 C 667.386719 2041.289062 662.695312 2034.359375 659.394531 2026.328125 C 656.085938 2018.308594 654.4375 2009.550781 654.4375 2000.050781 C 654.4375 1990.429688 656.015625 1981.609375 659.171875 1973.578125 C 662.328125 1965.558594 666.824219 1958.660156 672.667969 1952.878906 C 678.507812 1947.089844 685.574219 1942.578125 693.863281 1939.339844 C 702.152344 1936.089844 711.429688 1934.46875 721.695312 1934.46875 C 727.007812 1934.46875 731.960938 1934.898438 736.5625 1935.75 C 741.167969 1936.609375 745.414062 1937.789062 749.308594 1939.289062 C 753.203125 1940.789062 756.769531 1942.578125 760.015625 1944.640625 C 763.261719 1946.710938 766.210938 1948.980469 768.867188 1951.460938 L 761.167969 1963.320312 C 759.984375 1965.210938 758.453125 1966.359375 756.566406 1966.769531 C 754.675781 1967.179688 752.613281 1966.710938 750.371094 1965.351562 C 748.246094 1964.058594 746.167969 1962.890625 744.132812 1961.859375 C 742.097656 1960.828125 739.925781 1959.929688 737.625 1959.160156 C 735.324219 1958.390625 732.816406 1957.800781 730.105469 1957.390625 C 727.390625 1956.980469 724.261719 1956.769531 720.722656 1956.769531 C 714.761719 1956.769531 709.363281 1957.800781 704.527344 1959.871094 C 699.6875 1961.929688 695.574219 1964.851562 692.183594 1968.628906 C 688.789062 1972.410156 686.175781 1976.949219 684.347656 1982.261719 C 682.519531 1987.570312 681.605469 1993.5 681.605469 2000.050781 C 681.605469 2007.128906 682.609375 2013.460938 684.613281 2019.03125 C 686.621094 2024.609375 689.453125 2029.308594 693.109375 2033.140625 C 696.769531 2036.980469 701.148438 2039.898438 706.253906 2041.910156 C 711.355469 2043.910156 717.035156 2044.921875 723.289062 2044.921875 C 727.535156 2044.921875 731.328125 2044.488281 734.660156 2043.628906 C 737.992188 2042.78125 741.253906 2041.609375 744.441406 2040.140625 L 744.441406 2018.539062 L 729.925781 2018.539062 C 728.214844 2018.539062 726.875 2018.089844 725.898438 2017.171875 C 724.925781 2016.261719 724.441406 2015.089844 724.441406 2013.679688 L 724.441406 1998.898438 "/>
<path fill-rule="nonzero" fill="rgb(100%, 94.921875%, 0%)" fill-opacity="1" d="M 844.710938 2014.910156 L 844.710938 2064.300781 L 818.160156 2064.300781 L 818.160156 2014.910156 L 771.519531 1935.878906 L 794.886719 1935.878906 C 797.1875 1935.878906 799.03125 1936.429688 800.417969 1937.519531 C 801.800781 1938.609375 802.910156 1940.011719 803.734375 1941.71875 L 824.800781 1982.171875 C 826.214844 1984.878906 827.496094 1987.421875 828.648438 1989.78125 C 829.800781 1992.140625 830.816406 1994.5 831.703125 1996.859375 C 832.527344 1994.5 833.484375 1992.128906 834.578125 1989.738281 C 835.667969 1987.351562 836.894531 1984.820312 838.25 1982.171875 L 859.136719 1941.71875 C 859.84375 1940.308594 860.90625 1938.980469 862.324219 1937.738281 C 863.738281 1936.5 865.566406 1935.878906 867.808594 1935.878906 L 891.351562 1935.878906 L 844.710938 2014.910156 "/>
<path fill-rule="nonzero" fill="rgb(100%, 94.921875%, 0%)" fill-opacity="1" d="M 1044.71875 1935.878906 L 1044.71875 2064.300781 L 1021.269531 2064.300781 L 1021.269531 1985.441406 C 1021.269531 1983.789062 1021.308594 1982.019531 1021.398438 1980.128906 C 1021.488281 1978.25 1021.648438 1976.328125 1021.890625 1974.378906 L 985.160156 2044.03125 C 983.152344 2047.871094 980.054688 2049.78125 975.867188 2049.78125 L 972.148438 2049.78125 C 970.082031 2049.78125 968.253906 2049.300781 966.660156 2048.320312 C 965.070312 2047.351562 963.800781 2045.921875 962.855469 2044.03125 L 925.953125 1974.121094 C 926.128906 1976.179688 926.273438 1978.171875 926.394531 1980.089844 C 926.511719 1982.011719 926.570312 1983.789062 926.570312 1985.441406 L 926.570312 2064.300781 L 903.117188 2064.300781 L 903.117188 1935.878906 L 923.296875 1935.878906 C 924.417969 1935.878906 925.421875 1935.910156 926.304688 1935.96875 C 927.191406 1936.03125 927.972656 1936.191406 928.652344 1936.460938 C 929.328125 1936.71875 929.949219 1937.140625 930.511719 1937.699219 C 931.070312 1938.261719 931.617188 1939.039062 932.148438 1940.039062 L 968.078125 2008.539062 C 969.199219 2010.609375 970.246094 2012.730469 971.21875 2014.910156 C 972.191406 2017.101562 973.121094 2019.339844 974.007812 2021.640625 C 974.894531 2019.28125 975.820312 2016.980469 976.796875 2014.738281 C 977.769531 2012.5 978.816406 2010.339844 979.9375 2008.28125 L 1015.601562 1940.039062 C 1016.128906 1939.039062 1016.691406 1938.261719 1017.28125 1937.699219 C 1017.871094 1937.140625 1018.511719 1936.71875 1019.191406 1936.460938 C 1019.859375 1936.191406 1020.628906 1936.03125 1021.488281 1935.96875 C 1022.339844 1935.910156 1023.359375 1935.878906 1024.539062 1935.878906 L 1044.71875 1935.878906 "/>
<path fill-rule="nonzero" fill="rgb(100%, 94.921875%, 0%)" fill-opacity="1" d="M 1201.011719 2032.699219 C 1202.480469 2032.699219 1203.71875 2033.230469 1204.71875 2034.289062 L 1215.261719 2045.539062 C 1210.058594 2052.140625 1203.621094 2057.160156 1195.921875 2060.578125 C 1188.21875 2064 1179.058594 2065.710938 1168.441406 2065.710938 C 1158.820312 2065.710938 1150.179688 2064.078125 1142.511719 2060.800781 C 1134.839844 2057.53125 1128.320312 2052.96875 1122.949219 2047.128906 C 1117.578125 2041.289062 1113.449219 2034.359375 1110.558594 2026.328125 C 1107.671875 2018.308594 1106.21875 2009.550781 1106.21875 2000.050781 C 1106.21875 1993.671875 1106.921875 1987.609375 1108.300781 1981.859375 C 1109.691406 1976.109375 1111.710938 1970.808594 1114.371094 1965.96875 C 1117.019531 1961.140625 1120.21875 1956.769531 1123.96875 1952.878906 C 1127.710938 1948.980469 1131.949219 1945.660156 1136.671875 1942.921875 C 1141.390625 1940.179688 1146.539062 1938.078125 1152.109375 1936.640625 C 1157.691406 1935.191406 1163.628906 1934.46875 1169.941406 1934.46875 C 1174.660156 1934.46875 1179.128906 1934.878906 1183.351562 1935.710938 C 1187.570312 1936.53125 1191.511719 1937.679688 1195.171875 1939.160156 C 1198.820312 1940.628906 1202.199219 1942.421875 1205.300781 1944.511719 C 1208.398438 1946.609375 1211.179688 1948.890625 1213.660156 1951.371094 L 1204.71875 1963.578125 C 1204.191406 1964.351562 1203.511719 1965.03125 1202.691406 1965.621094 C 1201.859375 1966.210938 1200.738281 1966.5 1199.328125 1966.5 C 1197.910156 1966.5 1196.480469 1966 1195.03125 1965 C 1193.589844 1964 1191.820312 1962.878906 1189.71875 1961.640625 C 1187.628906 1960.398438 1185 1959.28125 1181.851562 1958.269531 C 1178.691406 1957.269531 1174.691406 1956.769531 1169.851562 1956.769531 C 1164.488281 1956.769531 1159.558594 1957.738281 1155.078125 1959.691406 C 1150.589844 1961.640625 1146.738281 1964.460938 1143.53125 1968.140625 C 1140.308594 1971.828125 1137.820312 1976.359375 1136.050781 1981.730469 C 1134.28125 1987.101562 1133.390625 1993.199219 1133.390625 2000.050781 C 1133.390625 2006.949219 1134.351562 2013.101562 1136.269531 2018.5 C 1138.191406 2023.898438 1140.808594 2028.460938 1144.148438 2032.171875 C 1147.480469 2035.890625 1151.371094 2038.710938 1155.828125 2040.621094 C 1160.28125 2042.539062 1165.050781 2043.5 1170.121094 2043.5 C 1173.128906 2043.5 1175.859375 2043.351562 1178.308594 2043.058594 C 1180.75 2042.761719 1183.03125 2042.261719 1185.121094 2041.550781 C 1187.210938 2040.851562 1189.191406 2039.929688 1191.050781 2038.808594 C 1192.910156 2037.691406 1194.78125 2036.269531 1196.671875 2034.558594 C 1197.320312 2034.03125 1198 2033.589844 1198.710938 2033.230469 C 1199.410156 2032.878906 1200.179688 2032.699219 1201.011719 2032.699219 "/>
<path fill-rule="nonzero" fill="rgb(100%, 94.921875%, 0%)" fill-opacity="1" d="M 1256.941406 1956.679688 L 1256.941406 1989.691406 L 1299.769531 1989.691406 L 1299.769531 2009.78125 L 1256.941406 2009.78125 L 1256.941406 2043.5 L 1311.980469 2043.5 L 1311.980469 2064.300781 L 1230.210938 2064.300781 L 1230.210938 1935.878906 L 1311.980469 1935.878906 L 1311.980469 1956.679688 L 1256.941406 1956.679688 "/>
<path fill-rule="nonzero" fill="rgb(100%, 94.921875%, 0%)" fill-opacity="1" d="M 1441.808594 1935.878906 L 1441.808594 2064.300781 L 1428.101562 2064.300781 C 1426.03125 2064.300781 1424.289062 2063.960938 1422.871094 2063.28125 C 1421.460938 2062.601562 1420.070312 2061.441406 1418.710938 2059.78125 L 1354.730469 1978.359375 C 1354.910156 1980.429688 1355.039062 1982.460938 1355.128906 1984.46875 C 1355.21875 1986.480469 1355.261719 1988.339844 1355.261719 1990.039062 L 1355.261719 2064.300781 L 1331.808594 2064.300781 L 1331.808594 1935.878906 L 1345.789062 1935.878906 C 1346.910156 1935.878906 1347.871094 1935.929688 1348.671875 1936.019531 C 1349.460938 1936.109375 1350.191406 1936.308594 1350.828125 1936.640625 C 1351.480469 1936.960938 1352.101562 1937.390625 1352.691406 1937.921875 C 1353.28125 1938.449219 1353.929688 1939.160156 1354.640625 1940.039062 L 1419.070312 2021.820312 C 1418.828125 2019.578125 1418.648438 2017.410156 1418.539062 2015.308594 C 1418.421875 2013.21875 1418.359375 2011.230469 1418.359375 2009.339844 L 1418.359375 1935.878906 L 1441.808594 1935.878906 "/>
<path fill-rule="nonzero" fill="rgb(100%, 94.921875%, 0%)" fill-opacity="1" d="M 1559.609375 1957.300781 L 1522.078125 1957.300781 L 1522.078125 2064.300781 L 1495.441406 2064.300781 L 1495.441406 1957.300781 L 1457.921875 1957.300781 L 1457.921875 1935.878906 L 1559.609375 1935.878906 L 1559.609375 1957.300781 "/>
<path fill-rule="nonzero" fill="rgb(100%, 94.921875%, 0%)" fill-opacity="1" d="M 1602.351562 1956.679688 L 1602.351562 1989.691406 L 1645.179688 1989.691406 L 1645.179688 2009.78125 L 1602.351562 2009.78125 L 1602.351562 2043.5 L 1657.398438 2043.5 L 1657.398438 2064.300781 L 1575.621094 2064.300781 L 1575.621094 1935.878906 L 1657.398438 1935.878906 L 1657.398438 1956.679688 L 1602.351562 1956.679688 "/>
<path fill-rule="nonzero" fill="rgb(100%, 94.921875%, 0%)" fill-opacity="1" d="M 1717.398438 1996.679688 C 1721.699219 1996.679688 1725.421875 1996.140625 1728.550781 1995.050781 C 1731.679688 1993.960938 1734.238281 1992.449219 1736.25 1990.53125 C 1738.25 1988.621094 1739.730469 1986.359375 1740.671875 1983.761719 C 1741.621094 1981.171875 1742.089844 1978.328125 1742.089844 1975.269531 C 1742.089844 1969.191406 1740.070312 1964.46875 1736.03125 1961.109375 C 1731.988281 1957.738281 1725.828125 1956.058594 1717.578125 1956.058594 L 1703.769531 1956.058594 L 1703.769531 1996.679688 Z M 1779.609375 2064.300781 L 1755.628906 2064.300781 C 1751.148438 2064.300781 1747.898438 2062.589844 1745.890625 2059.160156 L 1721.46875 2019.78125 C 1720.460938 2018.25 1719.359375 2017.128906 1718.148438 2016.421875 C 1716.941406 2015.710938 1715.160156 2015.359375 1712.800781 2015.359375 L 1703.769531 2015.359375 L 1703.769531 2064.300781 L 1677.21875 2064.300781 L 1677.21875 1935.878906 L 1717.578125 1935.878906 C 1726.539062 1935.878906 1734.210938 1936.808594 1740.578125 1938.671875 C 1746.960938 1940.53125 1752.179688 1943.109375 1756.25 1946.421875 C 1760.320312 1949.71875 1763.300781 1953.660156 1765.191406 1958.230469 C 1767.078125 1962.800781 1768.019531 1967.828125 1768.019531 1973.320312 C 1768.019531 1977.570312 1767.410156 1981.589844 1766.210938 1985.398438 C 1765 1989.210938 1763.238281 1992.671875 1760.941406 1995.800781 C 1758.640625 1998.929688 1755.808594 2001.699219 1752.441406 2004.121094 C 1749.078125 2006.539062 1745.25 2008.480469 1740.941406 2009.960938 C 1742.648438 2010.898438 1744.238281 2012.039062 1745.71875 2013.371094 C 1747.191406 2014.691406 1748.519531 2016.269531 1749.699219 2018.101562 L 1779.609375 2064.300781 "/>
<path fill-rule="nonzero" fill="rgb(100%, 94.921875%, 0%)" fill-opacity="1" d="M 1944.21875 1935.878906 L 1944.21875 2064.300781 L 1930.5 2064.300781 C 1928.441406 2064.300781 1926.699219 2063.960938 1925.28125 2063.28125 C 1923.859375 2062.601562 1922.480469 2061.441406 1921.121094 2059.78125 L 1857.140625 1978.359375 C 1857.308594 1980.429688 1857.449219 1982.460938 1857.53125 1984.46875 C 1857.621094 1986.480469 1857.671875 1988.339844 1857.671875 1990.039062 L 1857.671875 2064.300781 L 1834.210938 2064.300781 L 1834.210938 1935.878906 L 1848.199219 1935.878906 C 1849.320312 1935.878906 1850.28125 1935.929688 1851.070312 1936.019531 C 1851.871094 1936.109375 1852.589844 1936.308594 1853.238281 1936.640625 C 1853.890625 1936.960938 1854.511719 1937.390625 1855.101562 1937.921875 C 1855.691406 1938.449219 1856.339844 1939.160156 1857.050781 1940.039062 L 1921.46875 2021.820312 C 1921.238281 2019.578125 1921.058594 2017.410156 1920.941406 2015.308594 C 1920.828125 2013.21875 1920.769531 2011.230469 1920.769531 2009.339844 L 1920.769531 1935.878906 L 1944.21875 1935.878906 "/>
<path fill-rule="nonzero" fill="rgb(100%, 94.921875%, 0%)" fill-opacity="1" d="M 2038.910156 2015.53125 L 2025.019531 1976.238281 C 2024.191406 1974.179688 2023.320312 1971.761719 2022.410156 1968.980469 C 2021.488281 1966.210938 2020.621094 1963.199219 2019.800781 1959.960938 C 2018.96875 1963.261719 2018.101562 1966.308594 2017.191406 1969.121094 C 2016.269531 1971.921875 2015.398438 1974.351562 2014.578125 1976.421875 L 2000.769531 2015.53125 Z M 2083.519531 2064.300781 L 2062.898438 2064.300781 C 2060.601562 2064.300781 2058.71875 2063.75 2057.28125 2062.660156 C 2055.828125 2061.570312 2054.761719 2060.171875 2054.050781 2058.460938 L 2045.371094 2033.941406 L 1994.21875 2033.941406 L 1985.550781 2058.460938 C 1984.960938 2059.929688 1983.921875 2061.28125 1982.449219 2062.480469 C 1980.980469 2063.691406 1979.121094 2064.300781 1976.878906 2064.300781 L 1956.078125 2064.300781 L 2006.261719 1935.878906 L 2033.429688 1935.878906 L 2083.519531 2064.300781 "/>
<path fill-rule="nonzero" fill="rgb(100%, 94.921875%, 0%)" fill-opacity="1" d="M 2236.980469 1935.878906 L 2236.980469 2064.300781 L 2213.519531 2064.300781 L 2213.519531 1985.441406 C 2213.519531 1983.789062 2213.570312 1982.019531 2213.660156 1980.128906 C 2213.738281 1978.25 2213.910156 1976.328125 2214.140625 1974.378906 L 2177.421875 2044.03125 C 2175.410156 2047.871094 2172.308594 2049.78125 2168.121094 2049.78125 L 2164.410156 2049.78125 C 2162.339844 2049.78125 2160.511719 2049.300781 2158.921875 2048.320312 C 2157.328125 2047.351562 2156.058594 2045.921875 2155.109375 2044.03125 L 2118.210938 1974.121094 C 2118.390625 1976.179688 2118.53125 1978.171875 2118.648438 1980.089844 C 2118.769531 1982.011719 2118.828125 1983.789062 2118.828125 1985.441406 L 2118.828125 2064.300781 L 2095.378906 2064.300781 L 2095.378906 1935.878906 L 2115.550781 1935.878906 C 2116.671875 1935.878906 2117.679688 1935.910156 2118.558594 1935.96875 C 2119.449219 1936.03125 2120.230469 1936.191406 2120.910156 1936.460938 C 2121.589844 1936.71875 2122.210938 1937.140625 2122.769531 1937.699219 C 2123.328125 1938.261719 2123.871094 1939.039062 2124.398438 1940.039062 L 2160.328125 2008.539062 C 2161.460938 2010.609375 2162.5 2012.730469 2163.480469 2014.910156 C 2164.449219 2017.101562 2165.378906 2019.339844 2166.261719 2021.640625 C 2167.148438 2019.28125 2168.078125 2016.980469 2169.050781 2014.738281 C 2170.03125 2012.5 2171.070312 2010.339844 2172.191406 2008.28125 L 2207.859375 1940.039062 C 2208.390625 1939.039062 2208.949219 1938.261719 2209.539062 1937.699219 C 2210.128906 1937.140625 2210.761719 1936.71875 2211.441406 1936.460938 C 2212.121094 1936.191406 2212.890625 1936.03125 2213.738281 1935.96875 C 2214.601562 1935.910156 2215.621094 1935.878906 2216.800781 1935.878906 L 2236.980469 1935.878906 "/>
<path fill-rule="nonzero" fill="rgb(100%, 94.921875%, 0%)" fill-opacity="1" d="M 2290.519531 1956.679688 L 2290.519531 1989.691406 L 2333.351562 1989.691406 L 2333.351562 2009.78125 L 2290.519531 2009.78125 L 2290.519531 2043.5 L 2345.558594 2043.5 L 2345.558594 2064.300781 L 2263.789062 2064.300781 L 2263.789062 1935.878906 L 2345.558594 1935.878906 L 2345.558594 1956.679688 L 2290.519531 1956.679688 "/>
<path fill-rule="nonzero" fill="rgb(100%, 94.921875%, 0%)" fill-opacity="1" d="M 958.675781 2142.769531 L 958.675781 2168.46875 L 949.945312 2168.46875 L 949.945312 2142.769531 L 926.320312 2103.980469 L 933.972656 2103.980469 C 934.75 2103.980469 935.367188 2104.171875 935.816406 2104.539062 C 936.265625 2104.921875 936.65625 2105.410156 936.984375 2106.011719 L 951.746094 2131.070312 C 952.285156 2132.121094 952.78125 2133.109375 953.230469 2134.019531 C 953.683594 2134.941406 954.070312 2135.859375 954.402344 2136.789062 C 954.730469 2135.859375 955.105469 2134.941406 955.527344 2134.019531 C 955.945312 2133.109375 956.410156 2132.121094 956.921875 2131.070312 L 971.636719 2106.011719 C 971.90625 2105.5 972.28125 2105.03125 972.761719 2104.609375 C 973.242188 2104.191406 973.855469 2103.980469 974.605469 2103.980469 L 982.300781 2103.980469 L 958.675781 2142.769531 "/>
<path fill-rule="nonzero" fill="rgb(100%, 94.921875%, 0%)" fill-opacity="1" d="M 1055.828125 2136.25 C 1055.828125 2132.289062 1055.289062 2128.730469 1054.210938 2125.578125 C 1053.128906 2122.429688 1051.601562 2119.769531 1049.621094 2117.601562 C 1047.640625 2115.421875 1045.238281 2113.75 1042.421875 2112.578125 C 1039.601562 2111.410156 1036.449219 2110.820312 1032.96875 2110.820312 C 1029.519531 2110.820312 1026.390625 2111.410156 1023.570312 2112.578125 C 1020.75 2113.75 1018.339844 2115.421875 1016.339844 2117.601562 C 1014.351562 2119.769531 1012.808594 2122.429688 1011.730469 2125.578125 C 1010.648438 2128.730469 1010.109375 2132.289062 1010.109375 2136.25 C 1010.109375 2140.210938 1010.648438 2143.761719 1011.730469 2146.890625 C 1012.808594 2150.03125 1014.351562 2152.679688 1016.339844 2154.859375 C 1018.339844 2157.03125 1020.75 2158.699219 1023.570312 2159.851562 C 1026.390625 2161.011719 1029.519531 2161.578125 1032.96875 2161.578125 C 1036.449219 2161.578125 1039.601562 2161.011719 1042.421875 2159.851562 C 1045.238281 2158.699219 1047.640625 2157.03125 1049.621094 2154.859375 C 1051.601562 2152.679688 1053.128906 2150.03125 1054.210938 2146.890625 C 1055.289062 2143.761719 1055.828125 2140.210938 1055.828125 2136.25 Z M 1064.789062 2136.25 C 1064.789062 2141.078125 1064.019531 2145.511719 1062.488281 2149.539062 C 1060.960938 2153.578125 1058.800781 2157.050781 1056.011719 2159.960938 C 1053.21875 2162.871094 1049.871094 2165.128906 1045.949219 2166.738281 C 1042.039062 2168.339844 1037.710938 2169.140625 1032.96875 2169.140625 C 1028.230469 2169.140625 1023.910156 2168.339844 1020.011719 2166.738281 C 1016.109375 2165.128906 1012.769531 2162.871094 1009.980469 2159.960938 C 1007.191406 2157.050781 1005.03125 2153.578125 1003.5 2149.539062 C 1001.96875 2145.511719 1001.199219 2141.078125 1001.199219 2136.25 C 1001.199219 2131.421875 1001.96875 2126.988281 1003.5 2122.949219 C 1005.03125 2118.921875 1007.191406 2115.441406 1009.980469 2112.511719 C 1012.769531 2109.578125 1016.109375 2107.308594 1020.011719 2105.691406 C 1023.910156 2104.070312 1028.230469 2103.261719 1032.96875 2103.261719 C 1037.710938 2103.261719 1042.039062 2104.070312 1045.949219 2105.691406 C 1049.871094 2107.308594 1053.21875 2109.578125 1056.011719 2112.511719 C 1058.800781 2115.441406 1060.960938 2118.921875 1062.488281 2122.949219 C 1064.019531 2126.988281 1064.789062 2131.421875 1064.789062 2136.25 "/>
<path fill-rule="nonzero" fill="rgb(100%, 94.921875%, 0%)" fill-opacity="1" d="M 1120.140625 2161.539062 C 1122.800781 2161.539062 1125.191406 2161.089844 1127.289062 2160.191406 C 1129.390625 2159.289062 1131.171875 2158.03125 1132.621094 2156.410156 C 1134.078125 2154.789062 1135.191406 2152.851562 1135.949219 2150.601562 C 1136.71875 2148.351562 1137.101562 2145.878906 1137.101562 2143.179688 L 1137.101562 2103.980469 L 1145.789062 2103.980469 L 1145.789062 2143.179688 C 1145.789062 2146.898438 1145.191406 2150.351562 1144.011719 2153.53125 C 1142.820312 2156.710938 1141.128906 2159.460938 1138.921875 2161.789062 C 1136.71875 2164.109375 1134.03125 2165.929688 1130.851562 2167.25 C 1127.671875 2168.570312 1124.101562 2169.230469 1120.140625 2169.230469 C 1116.179688 2169.230469 1112.601562 2168.570312 1109.429688 2167.25 C 1106.25 2165.929688 1103.539062 2164.109375 1101.328125 2161.789062 C 1099.101562 2159.460938 1097.398438 2156.710938 1096.21875 2153.53125 C 1095.03125 2150.351562 1094.441406 2146.898438 1094.441406 2143.179688 L 1094.441406 2103.980469 L 1103.128906 2103.980469 L 1103.128906 2143.128906 C 1103.128906 2145.828125 1103.511719 2148.308594 1104.269531 2150.558594 C 1105.039062 2152.808594 1106.148438 2154.738281 1107.601562 2156.359375 C 1109.058594 2157.980469 1110.839844 2159.25 1112.960938 2160.171875 C 1115.070312 2161.078125 1117.460938 2161.539062 1120.140625 2161.539062 "/>
<path fill-rule="nonzero" fill="rgb(100%, 94.921875%, 0%)" fill-opacity="1" d="M 1197.308594 2135.210938 C 1199.828125 2135.210938 1202.058594 2134.910156 1203.988281 2134.289062 C 1205.929688 2133.679688 1207.550781 2132.808594 1208.851562 2131.679688 C 1210.160156 2130.558594 1211.140625 2129.210938 1211.800781 2127.648438 C 1212.460938 2126.089844 1212.789062 2124.371094 1212.789062 2122.480469 C 1212.789062 2118.640625 1211.53125 2115.738281 1209.011719 2113.789062 C 1206.488281 2111.839844 1202.710938 2110.871094 1197.671875 2110.871094 L 1188.128906 2110.871094 L 1188.128906 2135.210938 Z M 1227.101562 2168.46875 L 1219.359375 2168.46875 C 1217.769531 2168.46875 1216.601562 2167.851562 1215.851562 2166.621094 L 1199.109375 2143.578125 C 1198.601562 2142.859375 1198.050781 2142.351562 1197.46875 2142.03125 C 1196.878906 2141.710938 1195.96875 2141.558594 1194.738281 2141.558594 L 1188.128906 2141.558594 L 1188.128906 2168.46875 L 1179.441406 2168.46875 L 1179.441406 2103.980469 L 1197.671875 2103.980469 C 1201.75 2103.980469 1205.269531 2104.398438 1208.238281 2105.21875 C 1211.210938 2106.050781 1213.671875 2107.238281 1215.601562 2108.800781 C 1217.539062 2110.359375 1218.96875 2112.238281 1219.898438 2114.449219 C 1220.828125 2116.648438 1221.289062 2119.121094 1221.289062 2121.851562 C 1221.289062 2124.128906 1220.929688 2126.261719 1220.210938 2128.238281 C 1219.488281 2130.21875 1218.449219 2132 1217.089844 2133.570312 C 1215.71875 2135.148438 1214.058594 2136.488281 1212.089844 2137.601562 C 1210.128906 2138.710938 1207.898438 2139.550781 1205.410156 2140.121094 C 1206.519531 2140.75 1207.480469 2141.660156 1208.289062 2142.859375 L 1227.101562 2168.46875 "/>
<path fill-rule="nonzero" fill="rgb(100%, 94.921875%, 0%)" fill-opacity="1" d="M 1327.851562 2114.058594 C 1327.578125 2114.511719 1327.289062 2114.851562 1326.980469 2115.078125 C 1326.660156 2115.300781 1326.28125 2115.410156 1325.828125 2115.410156 C 1325.320312 2115.410156 1324.71875 2115.160156 1324.03125 2114.648438 C 1323.339844 2114.140625 1322.480469 2113.578125 1321.441406 2112.960938 C 1320.410156 2112.351562 1319.160156 2111.78125 1317.710938 2111.269531 C 1316.25 2110.761719 1314.488281 2110.511719 1312.421875 2110.511719 C 1310.46875 2110.511719 1308.75 2110.769531 1307.269531 2111.289062 C 1305.78125 2111.820312 1304.539062 2112.53125 1303.53125 2113.429688 C 1302.53125 2114.328125 1301.769531 2115.390625 1301.261719 2116.609375 C 1300.75 2117.820312 1300.488281 2119.128906 1300.488281 2120.539062 C 1300.488281 2122.339844 1300.941406 2123.839844 1301.820312 2125.019531 C 1302.710938 2126.210938 1303.878906 2127.21875 1305.328125 2128.058594 C 1306.789062 2128.898438 1308.441406 2129.628906 1310.28125 2130.238281 C 1312.128906 2130.859375 1314.019531 2131.488281 1315.949219 2132.148438 C 1317.890625 2132.808594 1319.78125 2133.558594 1321.621094 2134.378906 C 1323.46875 2135.210938 1325.121094 2136.25 1326.570312 2137.511719 C 1328.03125 2138.769531 1329.199219 2140.308594 1330.078125 2142.140625 C 1330.96875 2143.96875 1331.410156 2146.21875 1331.410156 2148.890625 C 1331.410156 2151.710938 1330.929688 2154.359375 1329.96875 2156.828125 C 1329.011719 2159.308594 1327.609375 2161.460938 1325.761719 2163.289062 C 1323.921875 2165.121094 1321.648438 2166.558594 1318.96875 2167.609375 C 1316.28125 2168.660156 1313.230469 2169.191406 1309.808594 2169.191406 C 1305.609375 2169.191406 1301.800781 2168.429688 1298.378906 2166.921875 C 1294.960938 2165.398438 1292.03125 2163.351562 1289.601562 2160.769531 L 1292.121094 2156.628906 C 1292.359375 2156.300781 1292.660156 2156.03125 1293 2155.800781 C 1293.351562 2155.578125 1293.730469 2155.460938 1294.148438 2155.460938 C 1294.539062 2155.460938 1294.980469 2155.621094 1295.480469 2155.941406 C 1295.96875 2156.25 1296.53125 2156.648438 1297.160156 2157.128906 C 1297.789062 2157.609375 1298.511719 2158.128906 1299.320312 2158.699219 C 1300.128906 2159.269531 1301.058594 2159.800781 1302.089844 2160.28125 C 1303.128906 2160.761719 1304.300781 2161.160156 1305.621094 2161.46875 C 1306.941406 2161.789062 1308.429688 2161.941406 1310.078125 2161.941406 C 1312.148438 2161.941406 1313.988281 2161.660156 1315.609375 2161.089844 C 1317.230469 2160.519531 1318.609375 2159.710938 1319.730469 2158.679688 C 1320.859375 2157.648438 1321.71875 2156.410156 1322.320312 2154.96875 C 1322.921875 2153.53125 1323.21875 2151.921875 1323.21875 2150.148438 C 1323.21875 2148.199219 1322.78125 2146.609375 1321.890625 2145.359375 C 1321.011719 2144.121094 1319.839844 2143.070312 1318.398438 2142.230469 C 1316.960938 2141.390625 1315.308594 2140.679688 1313.449219 2140.101562 C 1311.589844 2139.511719 1309.699219 2138.910156 1307.78125 2138.289062 C 1305.859375 2137.679688 1303.96875 2136.96875 1302.109375 2136.160156 C 1300.25 2135.351562 1298.601562 2134.300781 1297.160156 2133.011719 C 1295.71875 2131.71875 1294.558594 2130.109375 1293.679688 2128.171875 C 1292.789062 2126.238281 1292.351562 2123.839844 1292.351562 2120.988281 C 1292.351562 2118.710938 1292.789062 2116.511719 1293.679688 2114.378906 C 1294.558594 2112.25 1295.851562 2110.359375 1297.550781 2108.710938 C 1299.238281 2107.058594 1301.328125 2105.738281 1303.800781 2104.75 C 1306.28125 2103.761719 1309.121094 2103.261719 1312.328125 2103.261719 C 1315.929688 2103.261719 1319.210938 2103.828125 1322.160156 2104.96875 C 1325.121094 2106.109375 1327.71875 2107.761719 1329.96875 2109.921875 L 1327.851562 2114.058594 "/>
<path fill-rule="nonzero" fill="rgb(100%, 94.921875%, 0%)" fill-opacity="1" d="M 1398.28125 2161.128906 L 1398.28125 2168.46875 L 1361.691406 2168.46875 L 1361.691406 2103.980469 L 1370.378906 2103.980469 L 1370.378906 2161.128906 L 1398.28125 2161.128906 "/>
<path fill-rule="nonzero" fill="rgb(100%, 94.921875%, 0%)" fill-opacity="1" d="M 1473.519531 2136.25 C 1473.519531 2132.289062 1472.980469 2128.730469 1471.898438 2125.578125 C 1470.820312 2122.429688 1469.289062 2119.769531 1467.308594 2117.601562 C 1465.328125 2115.421875 1462.929688 2113.75 1460.109375 2112.578125 C 1457.289062 2111.410156 1454.140625 2110.820312 1450.660156 2110.820312 C 1447.210938 2110.820312 1444.070312 2111.410156 1441.25 2112.578125 C 1438.429688 2113.75 1436.03125 2115.421875 1434.03125 2117.601562 C 1432.039062 2119.769531 1430.5 2122.429688 1429.421875 2125.578125 C 1428.339844 2128.730469 1427.800781 2132.289062 1427.800781 2136.25 C 1427.800781 2140.210938 1428.339844 2143.761719 1429.421875 2146.890625 C 1430.5 2150.03125 1432.039062 2152.679688 1434.03125 2154.859375 C 1436.03125 2157.03125 1438.429688 2158.699219 1441.25 2159.851562 C 1444.070312 2161.011719 1447.210938 2161.578125 1450.660156 2161.578125 C 1454.140625 2161.578125 1457.289062 2161.011719 1460.109375 2159.851562 C 1462.929688 2158.699219 1465.328125 2157.03125 1467.308594 2154.859375 C 1469.289062 2152.679688 1470.820312 2150.03125 1471.898438 2146.890625 C 1472.980469 2143.761719 1473.519531 2140.210938 1473.519531 2136.25 Z M 1482.46875 2136.25 C 1482.46875 2141.078125 1481.710938 2145.511719 1480.179688 2149.539062 C 1478.648438 2153.578125 1476.488281 2157.050781 1473.699219 2159.960938 C 1470.910156 2162.871094 1467.558594 2165.128906 1463.640625 2166.738281 C 1459.730469 2168.339844 1455.398438 2169.140625 1450.660156 2169.140625 C 1445.921875 2169.140625 1441.601562 2168.339844 1437.699219 2166.738281 C 1433.800781 2165.128906 1430.449219 2162.871094 1427.660156 2159.960938 C 1424.871094 2157.050781 1422.710938 2153.578125 1421.179688 2149.539062 C 1419.648438 2145.511719 1418.890625 2141.078125 1418.890625 2136.25 C 1418.890625 2131.421875 1419.648438 2126.988281 1421.179688 2122.949219 C 1422.710938 2118.921875 1424.871094 2115.441406 1427.660156 2112.511719 C 1430.449219 2109.578125 1433.800781 2107.308594 1437.699219 2105.691406 C 1441.601562 2104.070312 1445.921875 2103.261719 1450.660156 2103.261719 C 1455.398438 2103.261719 1459.730469 2104.070312 1463.640625 2105.691406 C 1467.558594 2107.308594 1470.910156 2109.578125 1473.699219 2112.511719 C 1476.488281 2115.441406 1478.648438 2118.921875 1480.179688 2122.949219 C 1481.710938 2126.988281 1482.46875 2131.421875 1482.46875 2136.25 "/>
<path fill-rule="nonzero" fill="rgb(100%, 94.921875%, 0%)" fill-opacity="1" d="M 1565.320312 2137.460938 L 1565.320312 2162.210938 C 1562.078125 2164.550781 1558.621094 2166.300781 1554.941406 2167.460938 C 1551.269531 2168.609375 1547.238281 2169.191406 1542.859375 2169.191406 C 1537.671875 2169.191406 1532.988281 2168.390625 1528.820312 2166.78125 C 1524.648438 2165.179688 1521.089844 2162.929688 1518.128906 2160.03125 C 1515.179688 2157.140625 1512.910156 2153.660156 1511.320312 2149.609375 C 1509.730469 2145.558594 1508.929688 2141.109375 1508.929688 2136.25 C 1508.929688 2131.328125 1509.699219 2126.839844 1511.25 2122.789062 C 1512.789062 2118.738281 1514.988281 2115.269531 1517.839844 2112.378906 C 1520.691406 2109.480469 1524.160156 2107.238281 1528.238281 2105.648438 C 1532.320312 2104.058594 1536.878906 2103.261719 1541.921875 2103.261719 C 1544.46875 2103.261719 1546.839844 2103.449219 1549.03125 2103.828125 C 1551.21875 2104.199219 1553.238281 2104.738281 1555.101562 2105.449219 C 1556.960938 2106.148438 1558.691406 2107.011719 1560.28125 2108.011719 C 1561.871094 2109.019531 1563.351562 2110.148438 1564.730469 2111.410156 L 1562.261719 2115.371094 C 1561.871094 2115.96875 1561.359375 2116.351562 1560.75 2116.519531 C 1560.128906 2116.679688 1559.449219 2116.539062 1558.699219 2116.089844 C 1557.980469 2115.671875 1557.160156 2115.160156 1556.230469 2114.558594 C 1555.300781 2113.960938 1554.160156 2113.378906 1552.828125 2112.828125 C 1551.488281 2112.269531 1549.921875 2111.800781 1548.101562 2111.410156 C 1546.289062 2111.019531 1544.140625 2110.820312 1541.648438 2110.820312 C 1538.019531 2110.820312 1534.730469 2111.421875 1531.789062 2112.601562 C 1528.851562 2113.789062 1526.351562 2115.480469 1524.28125 2117.691406 C 1522.210938 2119.890625 1520.621094 2122.558594 1519.511719 2125.699219 C 1518.398438 2128.828125 1517.839844 2132.351562 1517.839844 2136.25 C 1517.839844 2140.300781 1518.421875 2143.921875 1519.570312 2147.121094 C 1520.730469 2150.308594 1522.378906 2153.03125 1524.519531 2155.261719 C 1526.671875 2157.5 1529.269531 2159.199219 1532.328125 2160.371094 C 1535.390625 2161.539062 1538.828125 2162.121094 1542.640625 2162.121094 C 1545.640625 2162.121094 1548.300781 2161.789062 1550.621094 2161.109375 C 1552.949219 2160.441406 1555.21875 2159.5 1557.441406 2158.300781 L 1557.441406 2144.121094 L 1547.410156 2144.121094 C 1546.839844 2144.121094 1546.378906 2143.960938 1546.03125 2143.628906 C 1545.691406 2143.300781 1545.519531 2142.890625 1545.519531 2142.410156 L 1545.519531 2137.460938 L 1565.320312 2137.460938 "/>
<path fill-rule="nonzero" fill="rgb(100%, 94.921875%, 0%)" fill-opacity="1" d="M 1630.390625 2144.53125 L 1620.261719 2118.289062 C 1619.960938 2117.511719 1619.648438 2116.609375 1619.320312 2115.570312 C 1618.988281 2114.539062 1618.671875 2113.429688 1618.371094 2112.261719 C 1617.738281 2114.691406 1617.101562 2116.71875 1616.441406 2118.339844 L 1606.308594 2144.53125 Z M 1648.570312 2168.46875 L 1641.820312 2168.46875 C 1641.039062 2168.46875 1640.410156 2168.269531 1639.929688 2167.878906 C 1639.449219 2167.488281 1639.089844 2167 1638.851562 2166.398438 L 1632.820312 2150.828125 L 1603.878906 2150.828125 L 1597.851562 2166.398438 C 1597.671875 2166.941406 1597.328125 2167.421875 1596.820312 2167.839844 C 1596.308594 2168.261719 1595.679688 2168.46875 1594.929688 2168.46875 L 1588.179688 2168.46875 L 1613.960938 2103.980469 L 1622.78125 2103.980469 L 1648.570312 2168.46875 "/>
<path fill-rule="nonzero" fill="rgb(100%, 94.921875%, 0%)" fill-opacity="1" d="M 1727.320312 2103.980469 L 1727.320312 2168.46875 L 1722.949219 2168.46875 C 1722.261719 2168.46875 1721.679688 2168.351562 1721.21875 2168.109375 C 1720.75 2167.871094 1720.300781 2167.460938 1719.851562 2166.890625 L 1682.539062 2118.289062 C 1682.601562 2119.039062 1682.648438 2119.78125 1682.679688 2120.5 C 1682.710938 2121.21875 1682.71875 2121.890625 1682.71875 2122.519531 L 1682.71875 2168.46875 L 1675.070312 2168.46875 L 1675.070312 2103.980469 L 1679.570312 2103.980469 C 1679.960938 2103.980469 1680.289062 2104 1680.558594 2104.050781 C 1680.828125 2104.101562 1681.070312 2104.171875 1681.28125 2104.28125 C 1681.488281 2104.378906 1681.699219 2104.53125 1681.910156 2104.730469 C 1682.121094 2104.921875 1682.351562 2105.171875 1682.589844 2105.46875 L 1719.890625 2154.019531 C 1719.828125 2153.238281 1719.78125 2152.488281 1719.730469 2151.75 C 1719.691406 2151.019531 1719.671875 2150.320312 1719.671875 2149.660156 L 1719.671875 2103.980469 L 1727.320312 2103.980469 "/>
<path fill-rule="nonzero" fill="rgb(100%, 94.921875%, 0%)" fill-opacity="1" d="M 1855.070312 2103.980469 L 1855.070312 2168.46875 L 1846.339844 2168.46875 L 1846.339844 2139.128906 L 1811.550781 2139.128906 L 1811.550781 2168.46875 L 1802.820312 2168.46875 L 1802.820312 2103.980469 L 1811.550781 2103.980469 L 1811.550781 2132.738281 L 1846.339844 2132.738281 L 1846.339844 2103.980469 L 1855.070312 2103.980469 "/>
<path fill-rule="nonzero" fill="rgb(100%, 94.921875%, 0%)" fill-opacity="1" d="M 1929.320312 2161.359375 L 1929.269531 2168.46875 L 1889.539062 2168.46875 L 1889.539062 2103.980469 L 1929.269531 2103.980469 L 1929.269531 2111.089844 L 1898.269531 2111.089844 L 1898.269531 2132.511719 L 1923.378906 2132.511719 L 1923.378906 2139.351562 L 1898.269531 2139.351562 L 1898.269531 2161.359375 L 1929.320312 2161.359375 "/>
<path fill-rule="nonzero" fill="rgb(100%, 94.921875%, 0%)" fill-opacity="1" d="M 1977.378906 2135.210938 C 1979.898438 2135.210938 1982.128906 2134.910156 1984.058594 2134.289062 C 1986 2133.679688 1987.621094 2132.808594 1988.921875 2131.679688 C 1990.230469 2130.558594 1991.210938 2129.210938 1991.871094 2127.648438 C 1992.53125 2126.089844 1992.859375 2124.371094 1992.859375 2122.480469 C 1992.859375 2118.640625 1991.601562 2115.738281 1989.078125 2113.789062 C 1986.558594 2111.839844 1982.78125 2110.871094 1977.738281 2110.871094 L 1968.199219 2110.871094 L 1968.199219 2135.210938 Z M 2007.171875 2168.46875 L 1999.429688 2168.46875 C 1997.839844 2168.46875 1996.671875 2167.851562 1995.921875 2166.621094 L 1979.179688 2143.578125 C 1978.671875 2142.859375 1978.121094 2142.351562 1977.539062 2142.03125 C 1976.949219 2141.710938 1976.039062 2141.558594 1974.808594 2141.558594 L 1968.199219 2141.558594 L 1968.199219 2168.46875 L 1959.511719 2168.46875 L 1959.511719 2103.980469 L 1977.738281 2103.980469 C 1981.820312 2103.980469 1985.339844 2104.398438 1988.308594 2105.21875 C 1991.28125 2106.050781 1993.738281 2107.238281 1995.671875 2108.800781 C 1997.609375 2110.359375 1999.039062 2112.238281 1999.96875 2114.449219 C 2000.898438 2116.648438 2001.359375 2119.121094 2001.359375 2121.851562 C 2001.359375 2124.128906 2001 2126.261719 2000.28125 2128.238281 C 1999.558594 2130.21875 1998.519531 2132 1997.160156 2133.570312 C 1995.789062 2135.148438 1994.128906 2136.488281 1992.160156 2137.601562 C 1990.199219 2138.710938 1987.96875 2139.550781 1985.480469 2140.121094 C 1986.589844 2140.75 1987.550781 2141.660156 1988.359375 2142.859375 L 2007.171875 2168.46875 "/>
<path fill-rule="nonzero" fill="rgb(100%, 94.921875%, 0%)" fill-opacity="1" d="M 2073.679688 2161.359375 L 2073.628906 2168.46875 L 2033.898438 2168.46875 L 2033.898438 2103.980469 L 2073.628906 2103.980469 L 2073.628906 2111.089844 L 2042.628906 2111.089844 L 2042.628906 2132.511719 L 2067.738281 2132.511719 L 2067.738281 2139.351562 L 2042.628906 2139.351562 L 2042.628906 2161.359375 L 2073.679688 2161.359375 "/>
</svg>
